<svg width="117" height="36" viewBox="0 0 117 36" fill="none" xmlns="http://www.w3.org/2000/svg">
<g clip-path="url(#clip0_888_78)">
<path d="M43.7824 10.8236L43.2936 12.2901C43.2936 12.325 43.2238 12.3599 43.1888 12.3599H42.0367C41.9668 12.3599 41.9319 12.325 41.9668 12.2552L43.957 6.49419C44.0268 6.2847 44.0617 6.11013 44.0617 5.90064C44.0617 5.86573 44.0966 5.83081 44.1316 5.83081H45.7376C45.7726 5.83081 45.8075 5.83081 45.8075 5.90064L48.0769 12.2901C48.1119 12.325 48.0769 12.3948 48.042 12.3948H46.7502C46.7153 12.3948 46.6454 12.3599 46.6454 12.325L46.1217 10.8586L43.7824 10.8236ZM45.7027 9.56671C45.4932 8.90333 45.1092 7.71622 44.9346 6.983C44.76 7.64639 44.4109 8.72875 44.1665 9.56671H45.7027Z" fill="#FFFEFF"/>
<path d="M48.3574 9.9159C48.3574 8.48439 49.4049 7.29728 51.2554 7.29728C51.3252 7.29728 51.4299 7.29728 51.5696 7.33219V5.41187C51.5696 5.37696 51.6045 5.34204 51.6394 5.34204H52.8964C52.9313 5.34204 52.9662 5.37696 52.9662 5.41187V11.2776C52.9662 11.522 52.9662 11.7664 53.0011 12.0108C53.0011 12.0457 53.0011 12.0806 52.9313 12.0806C52.3028 12.3599 51.6394 12.4996 50.976 12.4996C49.4747 12.4647 48.3574 11.6267 48.3574 9.9159ZM51.5696 8.5193C51.4649 8.48439 51.3252 8.44947 51.2204 8.44947C50.4872 8.37964 49.8588 8.93828 49.7889 9.6715C49.7889 9.74133 49.7889 9.77624 49.7889 9.84607C49.7889 10.8237 50.3476 11.2776 51.1157 11.2776C51.2903 11.2776 51.4299 11.2776 51.5696 11.2078V8.5193Z" fill="#FFFEFF"/>
<path d="M58.7611 9.84603C58.7611 11.4172 57.7486 12.4647 56.3171 12.4647C54.6063 12.4647 53.873 11.1728 53.873 9.88095C53.873 8.44943 54.8157 7.29724 56.352 7.29724C57.9232 7.29724 58.7611 8.51926 58.7611 9.84603ZM55.2696 9.84603C55.2696 10.7189 55.6886 11.2775 56.352 11.2775C56.9456 11.2775 57.3645 10.7887 57.3645 9.88095C57.3645 9.11282 57.0503 8.44944 56.2822 8.44944C55.6886 8.44944 55.2696 8.97316 55.2696 9.84603Z" fill="#FFFEFF"/>
<path d="M60.9618 5.30713C61.0316 5.30713 61.0665 5.30713 61.0665 5.37696V7.43694C61.3458 7.36711 61.6252 7.3322 61.9045 7.3322C63.1614 7.26237 64.2438 8.23999 64.3136 9.49692C64.3136 9.56675 64.3136 9.63658 64.3136 9.70641C64.3136 11.5569 62.8472 12.4996 61.3109 12.4996C60.7872 12.4996 60.2635 12.4298 59.7398 12.2552C59.7048 12.2203 59.6699 12.1854 59.6699 12.1505V5.37696C59.6699 5.34204 59.6699 5.30713 59.7398 5.30713H60.9618ZM61.6601 8.48439C61.4506 8.48439 61.276 8.5193 61.0665 8.55422V11.2427C61.1713 11.2776 61.3109 11.2776 61.4506 11.2776C62.2187 11.3125 62.8472 10.7539 62.8821 9.98573C62.8821 9.9159 62.8821 9.84607 62.8821 9.77624C62.8472 8.90337 62.3235 8.48439 61.6601 8.48439Z" fill="#FFFEFF"/>
<path d="M66.3732 10.265C66.4081 10.8237 66.8271 11.3125 67.8047 11.3125C68.2236 11.3125 68.6426 11.2426 69.0267 11.0681C69.0616 11.0331 69.0965 11.0681 69.0965 11.103V12.0457C69.0965 12.1155 69.0616 12.1504 69.0267 12.1504C68.5379 12.3599 68.0142 12.4647 67.4904 12.4297C65.605 12.4297 64.9766 11.1379 64.9766 9.91586C64.9766 8.55418 65.8145 7.29724 67.3857 7.29724C68.887 7.29724 69.4806 8.44943 69.4806 9.46197C69.4806 9.67146 69.4806 9.91586 69.4457 10.1254C69.4457 10.1603 69.4108 10.1952 69.3758 10.1952C69.0267 10.2301 68.6775 10.2301 68.3633 10.2301L66.3732 10.265ZM67.665 9.28739C67.8396 9.28739 68.0142 9.28739 68.1538 9.25248V9.18265C68.1538 8.72875 67.7698 8.3796 67.3159 8.3796C67.3159 8.3796 67.3159 8.3796 67.2809 8.3796C66.7921 8.3796 66.3732 8.76367 66.3382 9.25248H67.665V9.28739Z" fill="#FFFEFF"/>
<path d="M42.3528 22.0662C42.3179 22.0313 42.283 21.9615 42.283 21.8916V20.7045C42.283 20.6696 42.3179 20.6347 42.3528 20.6696C42.8765 21.0188 43.505 21.1933 44.1684 21.1933C44.9365 21.1933 45.2158 20.914 45.2158 20.5649C45.2158 20.2157 45.0063 20.0062 44.308 19.7269L43.8192 19.5174C42.5972 18.9937 42.248 18.3652 42.248 17.5971C42.248 16.5147 43.0511 15.6768 44.6572 15.6768C45.1809 15.6419 45.7046 15.7466 46.2283 15.9561C46.2633 15.991 46.2982 16.0259 46.2982 16.0958V17.213C46.2982 17.248 46.2633 17.3178 46.1934 17.248C45.7046 17.0036 45.1809 16.8988 44.6572 16.8988C43.8891 16.8988 43.6097 17.1781 43.6097 17.4924C43.6097 17.8066 43.8192 18.0161 44.5524 18.2954L44.9016 18.4351C46.2284 18.9937 46.6124 19.6222 46.6124 20.4252C46.6124 21.6472 45.6348 22.3805 44.0985 22.3805C43.505 22.4503 42.9114 22.3106 42.3528 22.0662Z" fill="#FFFEFF"/>
<path d="M52.2318 19.8318C52.2318 21.4029 51.2193 22.4504 49.7878 22.4504C48.077 22.4504 47.3438 21.1585 47.3438 19.8667C47.3438 18.4352 48.2865 17.283 49.8227 17.283C51.3939 17.283 52.2318 18.4701 52.2318 19.8318ZM48.7054 19.8318C48.7054 20.7046 49.1244 21.2633 49.7878 21.2633C50.3814 21.2633 50.8003 20.7745 50.8003 19.8318C50.8003 19.0636 50.4861 18.4002 49.718 18.4002C49.1593 18.4352 48.7054 18.9589 48.7054 19.8318Z" fill="#FFFEFF"/>
<path d="M53.1055 15.3276C53.1055 15.2927 53.1055 15.2578 53.2102 15.2578H54.3973C54.4672 15.2578 54.5021 15.2927 54.5021 15.3276V20.914C54.5021 21.1934 54.6068 21.2981 54.8512 21.2981C54.921 21.2981 54.956 21.2981 55.0258 21.2981C55.0607 21.2981 55.0607 21.333 55.0607 21.3679V22.2408C55.0607 22.3106 55.0607 22.3455 54.9909 22.3455C54.7814 22.4154 54.5719 22.4503 54.3624 22.4503C53.6641 22.4503 53.1055 22.171 53.1055 21.0886V15.3276Z" fill="#FFFEFF"/>
<path d="M60.1227 21.2283C60.1227 21.5775 60.1576 21.9266 60.1925 22.2409C60.1925 22.3107 60.1576 22.3107 60.0878 22.3107H59.0403C58.9705 22.3107 58.9356 22.2758 58.9356 22.2409C58.9356 22.206 58.9006 22.0314 58.8657 21.9266C58.4817 22.2409 57.9929 22.4154 57.504 22.4154C56.4915 22.4154 55.8281 21.8568 55.8281 20.4951V17.4575C55.8281 17.3877 55.8281 17.3877 55.898 17.3877H57.12C57.1898 17.3877 57.1898 17.4226 57.1898 17.4575V20.3555C57.1898 20.8792 57.3993 21.2283 57.9579 21.2283C58.2373 21.2283 58.5166 21.1236 58.7261 20.949V17.4575C58.7261 17.3877 58.761 17.3877 58.8308 17.3877H60.0528C60.1227 17.3877 60.1227 17.4226 60.1227 17.4575V21.2283Z" fill="#FFFEFF"/>
<path d="M63.8603 22.171C63.8603 22.2409 63.8603 22.2758 63.7905 22.3107C63.5112 22.4154 63.197 22.4504 62.9176 22.4504C62.0448 22.4504 61.556 22.0314 61.556 21.0188V18.5399H60.9624C60.8926 18.5399 60.8926 18.505 60.8926 18.4701V17.4575C60.8926 17.3877 60.9275 17.3528 60.9973 17.3528H61.5909C61.5909 16.9338 61.6258 16.5497 61.6956 16.1308C61.6956 16.0958 61.7305 16.0609 61.8004 16.0609L62.9526 15.9213C62.9875 15.9213 63.0224 15.9213 63.0224 15.9911C62.9875 16.3053 62.9875 16.8989 62.9875 17.3877H63.8953C63.9651 17.3877 63.9651 17.4226 63.9651 17.4575V18.4701C63.9651 18.505 63.9651 18.5399 63.8953 18.5399H62.9526V20.6697C62.9526 21.1236 63.0922 21.2982 63.4763 21.2982C63.581 21.2982 63.7207 21.2982 63.8254 21.2633C63.8604 21.2633 63.8953 21.2633 63.8953 21.3331L63.8603 22.171Z" fill="#FFFEFF"/>
<path d="M64.6621 16.0608C64.6621 15.6418 64.9763 15.2927 65.3953 15.2927C65.4302 15.2927 65.4302 15.2927 65.4652 15.2927C65.8492 15.2578 66.1984 15.572 66.2333 15.9561C66.2333 15.991 66.2333 16.0259 66.2333 16.0608C66.2333 16.4798 65.8841 16.829 65.4652 16.829C65.0113 16.829 64.6621 16.4798 64.6621 16.0608ZM64.7319 17.4574C64.7319 17.4225 64.7319 17.3876 64.8018 17.3876H66.0238C66.0936 17.3876 66.0936 17.4225 66.0936 17.4574V22.2408C66.0936 22.3106 66.0936 22.3455 65.9889 22.3455H64.8018C64.7319 22.3455 64.697 22.3106 64.697 22.2408L64.7319 17.4574Z" fill="#FFFEFF"/>
<path d="M71.925 19.8318C71.925 21.4029 70.9124 22.4504 69.4809 22.4504C67.7701 22.4504 67.002 21.1585 67.002 19.8667C67.002 18.4352 67.9447 17.283 69.4809 17.283C71.087 17.283 71.925 18.4701 71.925 19.8318ZM68.4335 19.8318C68.4335 20.7046 68.8524 21.2633 69.5158 21.2633C70.0745 21.2633 70.5284 20.7745 70.5284 19.8318C70.5284 19.0636 70.2141 18.4002 69.446 18.4002C68.8524 18.4352 68.4335 18.9589 68.4335 19.8318Z" fill="#FFFEFF"/>
<path d="M72.8318 18.5399C72.8318 18.1907 72.7969 17.7019 72.7969 17.4575C72.7969 17.4226 72.7969 17.3877 72.8667 17.3877H73.9142C73.984 17.3877 74.0189 17.4226 74.0538 17.4575C74.0887 17.5623 74.1236 17.667 74.1236 17.7718C74.5077 17.4226 75.0314 17.248 75.5552 17.248C76.3233 17.248 77.2311 17.6321 77.2311 19.2382V22.206C77.2311 22.2758 77.1962 22.3107 77.1263 22.3107H75.9392C75.8694 22.3107 75.8345 22.2758 75.8345 22.206V19.3779C75.8345 18.7843 75.5552 18.4701 75.0663 18.4701C74.7521 18.4701 74.4728 18.5748 74.2284 18.7843V22.2409C74.2284 22.2758 74.1935 22.3107 74.1236 22.3107H72.9016C72.8318 22.3107 72.7969 22.2758 72.7969 22.206L72.8318 18.5399Z" fill="#FFFEFF"/>
<path d="M80.793 15.8864C80.793 15.8165 80.793 15.8165 80.8628 15.8165C81.2818 15.8165 82.0499 15.7816 82.818 15.7816C84.8431 15.7816 85.5414 16.8989 85.5414 17.9813C85.5414 19.5873 84.2845 20.2856 82.7482 20.2856H82.1896V22.2409C82.1896 22.2758 82.1547 22.3107 82.1197 22.3107H80.8977C80.8628 22.3107 80.8279 22.2758 80.8279 22.2409L80.793 15.8864ZM82.1547 19.0636C82.3292 19.0636 82.434 19.0636 82.7133 19.0636C83.4814 19.0636 84.1099 18.8192 84.1099 18.0162C84.1099 17.3877 83.6909 17.0036 82.818 17.0036C82.5038 17.0036 82.2245 17.0036 82.1547 17.0386V19.0636Z" fill="#FFFEFF"/>
<path d="M90.0804 21.2283C90.0804 21.4728 90.0804 21.6822 90.0804 21.9266C90.0804 21.9616 90.0804 21.9616 90.0804 21.9616C89.3821 22.2409 88.6489 22.4155 87.9157 22.4155C86.7984 22.4155 85.8906 21.8917 85.8906 20.7395C85.8906 19.6921 86.8333 19.1335 88.1601 19.1335C88.3696 19.1335 88.5442 19.1335 88.7536 19.1684V19.0985C88.7536 18.924 88.6489 18.4701 87.8109 18.4701C87.3571 18.4701 86.9032 18.5748 86.4842 18.7494C86.4493 18.7494 86.4143 18.7494 86.4143 18.7494V18.7145V17.7019C86.4143 17.667 86.4143 17.6321 86.4842 17.5972C86.973 17.3877 87.4967 17.283 88.0554 17.283C89.4869 17.283 90.1153 18.1907 90.1153 19.308V21.2283H90.0804ZM88.7187 20.1809C88.5442 20.146 88.4045 20.146 88.2299 20.146C87.5316 20.146 87.2174 20.3555 87.2174 20.7395C87.2174 21.1236 87.4618 21.3331 88.0903 21.3331C88.2998 21.3331 88.5092 21.2982 88.7187 21.2633V20.1809Z" fill="#FFFEFF"/>
<path d="M92.3492 17.3877C92.419 17.3877 92.454 17.4226 92.454 17.4924C92.5238 17.667 92.5587 17.8765 92.5587 18.0511C92.9428 17.5972 93.5363 17.3179 94.1299 17.3179C94.1997 17.3179 94.1997 17.3528 94.1997 17.3877V18.6097C94.1997 18.6446 94.1648 18.6796 94.095 18.6796C93.5712 18.6097 93.0126 18.7843 92.5936 19.0985V22.2758C92.5936 22.3456 92.5936 22.3456 92.5238 22.3456H91.3018C91.2319 22.3456 91.197 22.3107 91.197 22.2409V18.7843C91.197 18.3653 91.197 17.7718 91.1621 17.4226C91.1621 17.3877 91.1621 17.3528 91.2319 17.3528H92.3492V17.3877Z" fill="#FFFEFF"/>
<path d="M97.7959 22.171C97.7959 22.2409 97.7959 22.2758 97.7261 22.3107C97.4467 22.4154 97.1325 22.4504 96.8532 22.4504C95.9803 22.4504 95.4915 22.0314 95.4915 21.0188V18.5399H94.8979C94.8281 18.5399 94.8281 18.505 94.8281 18.4701V17.4575C94.8281 17.3877 94.863 17.3528 94.9329 17.3528H95.5264C95.5264 16.9338 95.5613 16.5497 95.6312 16.1308C95.6312 16.0958 95.6661 16.0609 95.701 16.0609L96.8532 15.9213C96.8881 15.9213 96.923 15.9213 96.923 15.9911C96.8881 16.3053 96.8881 16.8989 96.8881 17.3877H97.7959C97.8657 17.3877 97.8657 17.4226 97.8657 17.4575V18.4701C97.8657 18.505 97.8308 18.5399 97.7959 18.5399H96.8532V20.6697C96.8532 21.1236 96.9928 21.2982 97.3769 21.2982C97.4817 21.2982 97.6213 21.2982 97.7261 21.2633C97.761 21.2633 97.7959 21.2633 97.7959 21.3331V22.171Z" fill="#FFFEFF"/>
<path d="M98.6343 18.5399C98.6343 18.1907 98.6343 17.7019 98.5994 17.4575C98.5994 17.4226 98.5994 17.3877 98.6692 17.3877H99.7167C99.7865 17.3877 99.8214 17.4226 99.8563 17.4575C99.8912 17.5623 99.9261 17.667 99.9261 17.7718C100.31 17.4226 100.834 17.248 101.323 17.248C102.091 17.248 102.999 17.6321 102.999 19.2382V22.206C102.999 22.2758 102.964 22.3107 102.894 22.3107H101.707C101.637 22.3107 101.602 22.2758 101.602 22.206V19.3779C101.602 18.7843 101.358 18.4701 100.834 18.4701C100.52 18.4701 100.24 18.5748 99.996 18.7843V22.2409C99.996 22.2758 99.9611 22.3107 99.8912 22.3107H98.6692C98.5994 22.3107 98.5645 22.2758 98.5645 22.206L98.6343 18.5399Z" fill="#FFFEFF"/>
<path d="M105.303 20.2158C105.338 20.7745 105.757 21.2633 106.734 21.2633C107.153 21.2633 107.572 21.1934 107.956 21.0189C107.991 20.9839 108.026 21.0189 108.026 21.0538V21.9965C108.026 22.0663 107.991 22.1012 107.956 22.1012C107.468 22.3107 106.944 22.4155 106.42 22.3805C104.535 22.3805 103.906 21.0887 103.906 19.8667C103.906 18.505 104.744 17.248 106.315 17.248C107.817 17.248 108.41 18.4352 108.41 19.4128C108.41 19.6223 108.41 19.8667 108.375 20.0762C108.375 20.1111 108.34 20.146 108.306 20.146C107.956 20.1809 107.607 20.1809 107.293 20.1809L105.303 20.2158ZM106.595 19.2382C106.769 19.2382 106.944 19.2382 107.084 19.2033V19.1335C107.084 18.6796 106.699 18.3304 106.246 18.3304C105.757 18.3304 105.338 18.7145 105.303 19.2033L106.595 19.2382Z" fill="#FFFEFF"/>
<path d="M110.402 17.3877C110.472 17.3877 110.507 17.4226 110.507 17.4924C110.577 17.667 110.611 17.8765 110.611 18.0511C110.996 17.5623 111.589 17.3179 112.183 17.3179C112.252 17.3179 112.252 17.3528 112.252 17.3877V18.6097C112.252 18.6446 112.218 18.6796 112.148 18.6796C111.624 18.6097 111.065 18.7843 110.646 19.0985V22.2758C110.646 22.3456 110.611 22.3456 110.542 22.3456H109.355C109.285 22.3456 109.25 22.3107 109.25 22.2409V18.7843C109.25 18.3653 109.25 17.7718 109.215 17.4226C109.215 17.3877 109.215 17.3528 109.285 17.3528H110.402V17.3877Z" fill="#FFFEFF"/>
<path d="M42.3179 26.5703C42.3179 26.5354 42.3179 26.5354 42.3528 26.5005C42.5274 26.5005 43.0511 26.4656 43.4352 26.4656C44.5873 26.4656 44.7619 27.0591 44.7619 27.4083C44.7619 27.6876 44.6223 27.932 44.4128 28.1066C44.727 28.2462 44.9365 28.5954 44.9016 28.9445C44.9016 29.6079 44.3429 30.0269 43.4002 30.0269C42.8765 30.0269 42.4925 30.0269 42.283 30.0269C42.248 30.0269 42.248 29.992 42.248 29.992L42.3179 26.5703ZM43.0511 27.8622H43.4002C43.5748 27.8622 43.7145 27.8622 43.889 27.8971C43.9938 27.7923 44.0636 27.6876 44.0636 27.513C44.0636 27.2337 43.8541 27.094 43.4352 27.094C43.2606 27.094 43.1558 27.094 43.0511 27.094V27.8622ZM43.0511 29.3984C43.1558 29.3984 43.2955 29.3984 43.4352 29.3984C43.8891 29.3984 44.1684 29.2588 44.1684 28.9445C44.1684 28.735 44.0287 28.5605 43.8192 28.5256C43.7145 28.4906 43.5748 28.4906 43.4701 28.4906H43.0162L43.0511 29.3984Z" fill="#FFFEFF"/>
<path d="M45.8435 30.0269C45.8086 30.0269 45.8086 30.0269 45.8086 29.992V26.5703C45.8086 26.5354 45.8086 26.5005 45.8435 26.5005C46.3323 26.5005 46.5418 26.4656 46.9608 26.4656C47.8686 26.4656 48.3574 26.8496 48.3574 27.5479C48.3574 27.9669 48.0781 28.351 47.694 28.4906C47.8686 28.735 48.497 29.6428 48.6367 29.9571C48.6367 29.992 48.6716 30.0269 48.6367 30.0269H47.8686C47.8337 30.0269 47.7987 30.0269 47.7987 29.992C47.6591 29.7476 47.3099 29.1889 47.1004 28.8049C47.0655 28.735 47.0306 28.7001 46.9608 28.7001H46.5767V29.9571C46.5767 29.992 46.5767 29.992 46.5418 29.992L45.8435 30.0269ZM46.9608 28.0717C47.3798 28.0717 47.6242 27.8971 47.6242 27.5829C47.6242 27.2686 47.3449 27.129 46.9608 27.129C46.7862 27.129 46.6116 27.129 46.5418 27.129V28.0717H46.9608Z" fill="#FFFEFF"/>
<path d="M52.4423 28.2462C52.4423 29.3286 51.744 30.0967 50.7315 30.0967C49.719 30.0967 49.0556 29.3286 49.0556 28.2811C48.9858 27.3384 49.6841 26.5354 50.6268 26.4655C50.6617 26.4655 50.6966 26.4655 50.7315 26.4655C51.8488 26.4306 52.4423 27.2686 52.4423 28.2462ZM50.7664 29.4333C51.3251 29.4333 51.6742 28.9794 51.6742 28.2811C51.6742 27.5828 51.3251 27.1289 50.7664 27.1289C50.2078 27.1289 49.8586 27.5479 49.8586 28.2811C49.8237 28.9096 50.1729 29.4333 50.7664 29.4333Z" fill="#FFFEFF"/>
<path d="M53.3494 30.0269C53.3145 30.0269 53.3145 30.0269 53.3145 29.992V26.5354C53.3145 26.5005 53.3145 26.5005 53.3494 26.5005H54.2222C54.2572 26.5005 54.2572 26.5005 54.2921 26.5354C54.6412 27.1988 55.3744 28.5954 55.549 29.0144C55.549 28.8747 55.549 28.7001 55.549 28.1764V26.5354C55.549 26.5005 55.549 26.5005 55.5839 26.5005H56.1775C56.2124 26.5005 56.2124 26.5354 56.2124 26.5703V29.992C56.2124 30.0269 56.2124 30.0618 56.1426 30.0618H55.3744C55.3395 30.0618 55.3046 30.0618 55.3046 30.0269C54.9904 29.4333 54.1873 27.932 53.9429 27.3384C53.9778 27.6527 53.9778 27.8622 53.9778 28.3859V30.0269C53.9778 30.0618 53.9778 30.0618 53.9429 30.0618L53.3494 30.0269Z" fill="#FFFEFF"/>
<path d="M57.0505 30.0269C57.0156 30.0269 57.0156 30.0269 57.0156 29.992V29.573C57.0156 29.5381 57.0156 29.5381 57.0156 29.5032L58.7963 27.1639H57.0855C57.0505 27.1639 57.0505 27.1639 57.0505 27.129L57.1204 26.5354C57.1204 26.5005 57.1553 26.5005 57.1553 26.5005H59.7041C59.739 26.5005 59.739 26.5005 59.739 26.5354V26.9893C59.739 27.0242 59.739 27.0591 59.7041 27.0591L57.9583 29.3635H59.8088C59.8437 29.3635 59.8437 29.3984 59.8437 29.4333L59.739 29.992C59.739 30.0269 59.7041 30.0269 59.7041 30.0269H57.0505Z" fill="#FFFEFF"/>
<path d="M62.9177 29.992C62.9177 30.0269 62.9177 30.0269 62.8478 30.0269H60.6482C60.6133 30.0269 60.6133 29.992 60.6133 29.992V26.5354C60.6133 26.5005 60.6133 26.5005 60.6482 26.5005H62.778C62.8129 26.5005 62.8129 26.5005 62.8478 26.5354L62.9177 27.129C62.9177 27.1639 62.9177 27.1639 62.8828 27.1639H61.3814V27.8971H62.778C62.8129 27.8971 62.8129 27.8971 62.8129 27.932V28.5256C62.8129 28.5605 62.778 28.5605 62.778 28.5605H61.3814V29.3635H62.9875C63.0224 29.3635 63.0224 29.3635 63.0224 29.3984L62.9177 29.992Z" fill="#FFFEFF"/>
<path d="M8.69382 0H29.1191C33.9024 0 37.8129 3.87556 37.8129 8.69382V26.7099C37.8129 31.4933 33.9373 35.4038 29.1191 35.4038H8.69382C3.87556 35.3688 0 31.4933 0 26.7099V8.69382C0 3.87556 3.87556 0 8.69382 0Z" fill="white"/>
<path d="M9.18207 3.0376H28.5948C31.5276 3.0376 33.9019 5.41181 33.9019 8.34467V27.0242C33.9019 29.957 31.5276 32.3312 28.5948 32.3312H9.18207C6.24922 32.3312 3.875 29.957 3.875 27.0242V8.34467C3.875 5.41181 6.24922 3.0376 9.18207 3.0376Z" fill="#EE2424"/>
<path d="M27.2336 25.0689H23.6722C23.358 25.0689 23.0787 24.8943 22.939 24.5801L19.0635 15.5022C19.0286 15.3975 18.9587 15.3626 18.854 15.3975C18.7841 15.3975 18.7492 15.4673 18.7492 15.5022L16.3401 21.2632C16.3052 21.3679 16.3401 21.4727 16.4448 21.5425C16.4798 21.5425 16.4798 21.5425 16.5147 21.5425H19.1682C19.3428 21.5425 19.4824 21.6472 19.5523 21.7869L20.7045 24.3706C20.8092 24.615 20.7045 24.8943 20.4601 24.9991C20.3902 25.034 20.3553 25.034 20.2855 25.034H10.6141C10.3696 25.034 10.1602 24.8245 10.1602 24.5801C10.1602 24.5103 10.1602 24.4754 10.1951 24.4055L16.3401 9.81108C16.4798 9.49684 16.794 9.28735 17.1082 9.28735H20.6346C20.9838 9.28735 21.298 9.49684 21.4028 9.81108L27.6525 24.4404C27.7573 24.6499 27.6525 24.9293 27.4081 24.9991C27.3732 25.0689 27.3034 25.0689 27.2336 25.0689Z" fill="white"/>
</g>
<defs>
<clipPath id="clip0_888_78">
<rect width="117" height="35.3688" fill="white"/>
</clipPath>
</defs>
</svg>
