<svg width="70" height="46" viewBox="0 0 70 46" fill="none" xmlns="http://www.w3.org/2000/svg">
<path d="M70 0H0V46H70V0Z" fill="#012169"/>
<mask id="mask0_100_220" style="mask-type:luminance" maskUnits="userSpaceOnUse" x="0" y="0" width="31" height="27">
<path d="M0 0H30.6667V26.2262H0V0Z" fill="white"/>
</mask>
<g mask="url(#mask0_100_220)">
<path d="M0 0L30.6667 26.2262ZM30.6667 0L0 26.2262Z" fill="#000008"/>
<path d="M0 0L30.6667 26.2262M30.6667 0L0 26.2262" stroke="white" stroke-width="4.89557"/>
</g>
<mask id="mask1_100_220" style="mask-type:luminance" maskUnits="userSpaceOnUse" x="0" y="0" width="31" height="27">
<path d="M0 0V13.1131H30.6667V26.2262L0 0ZM30.6667 0H15.3333V26.2262H0L30.6667 0Z" fill="white"/>
</mask>
<g mask="url(#mask1_100_220)">
<path d="M0 0L30.6667 26.2262ZM30.6667 0L0 26.2262Z" fill="#000008"/>
<path d="M0 0L30.6667 26.2262M30.6667 0L0 26.2262" stroke="#E4002B" stroke-width="3.26371"/>
</g>
<path d="M15.3333 0V26.2262ZM0 13.1131H30.6667Z" fill="#000008"/>
<path d="M15.3333 0V26.2262M0 13.1131H30.6667" stroke="white" stroke-width="8.15928"/>
<path d="M15.3333 0V26.2262ZM0 13.1131H30.6667Z" fill="#000008"/>
<path d="M15.3333 0V26.2262M0 13.1131H30.6667" stroke="#E4002B" stroke-width="4.89557"/>
<path d="M18.0709 30.4929L18.9807 33.5239L21.7598 32.3963L20.1153 35.0482L22.6709 36.6731L19.7104 36.949L20.1181 40.1029L18.0709 37.795L16.0237 40.1029L16.4314 36.949L13.4709 36.6731L16.0264 35.0482L14.382 32.3963L17.161 33.5239L18.0709 30.4929Z" fill="white"/>
<path d="M51.1867 36.154L51.5496 37.6049L52.6582 37.0651L52.0022 38.3345L53.0216 39.1123L51.8407 39.2444L52.0033 40.754L51.1867 39.6493L50.3701 40.754L50.5327 39.2444L49.3518 39.1123L50.3712 38.3345L49.7152 37.0651L50.8238 37.6049L51.1867 36.154Z" fill="white"/>
<path d="M42.5752 18.6232L42.9381 20.0741L44.0467 19.5343L43.3907 20.8037L44.4101 21.5815L43.2292 21.7136L43.3918 23.2232L42.5752 22.1185L41.7586 23.2232L41.9212 21.7136L40.7403 21.5815L41.7597 20.8037L41.1037 19.5343L42.2123 20.0741L42.5752 18.6232Z" fill="white"/>
<path d="M52.1341 7.23274L52.589 8.68359L53.9786 8.14383L53.1563 9.41325L54.4341 10.191L52.9539 10.3231L53.1577 11.8327L52.1341 10.728L51.1105 11.8327L51.3143 10.3231L49.8341 10.191L51.1119 9.41325L50.2896 8.14383L51.6792 8.68359L52.1341 7.23274Z" fill="white"/>
<path d="M58.8416 15.6707L59.2045 17.1216L60.3131 16.5818L59.6571 17.8512L60.6765 18.629L59.4956 18.7611L59.6582 20.2707L58.8416 19.166L58.025 20.2707L58.1876 18.7611L57.0067 18.629L58.0261 17.8512L57.3701 16.5818L58.4787 17.1216L58.8416 15.6707Z" fill="white"/>
<path d="M55.3637 24.5547L55.7849 25.6403L56.897 25.726L56.0452 26.4827L56.3114 27.6213L55.3637 27.0033L54.4161 27.6213L54.6822 26.4827L53.8304 25.726L54.9425 25.6403L55.3637 24.5547Z" fill="white"/>
</svg>
