<svg width="71" height="46" viewBox="0 0 71 46" fill="none" xmlns="http://www.w3.org/2000/svg">
<rect width="71" height="46" fill="#FF0000"/>
<rect x="18" y="37" width="35" height="9" fill="white"/>
<rect x="47" y="8" width="6" height="29" fill="white"/>
<rect x="18" y="10" width="5" height="27" fill="white"/>
<rect x="18" width="35" height="10" fill="white"/>
<path d="M22 9H48V38H22V9ZM35.4875 35.7646L35.2437 30.5506C35.2402 30.4649 35.254 30.3793 35.284 30.3003C35.314 30.2213 35.3595 30.1507 35.4172 30.0939C35.4749 30.0371 35.5433 29.9955 35.6173 29.972C35.6914 29.9486 35.7692 29.944 35.845 29.9585L40.4979 30.8708L39.8696 28.9375C39.8441 28.8606 39.8408 28.7767 39.8603 28.6976C39.8797 28.6185 39.9208 28.5481 39.9779 28.4965L45.075 23.8927L43.9267 23.2946C43.8491 23.2537 43.7876 23.1827 43.7537 23.0948C43.7198 23.0069 43.7158 22.9082 43.7425 22.8173L44.75 19.3615L41.8142 20.0562C41.7346 20.0747 41.6518 20.062 41.5797 20.0201C41.5077 19.9783 41.4508 19.9099 41.4187 19.8267L40.85 18.3344L38.5587 21.0773C38.5064 21.1389 38.4375 21.18 38.3624 21.1942C38.2873 21.2085 38.2101 21.1952 38.1424 21.1564C38.0747 21.1176 38.02 21.0554 37.9867 20.979C37.9534 20.9027 37.9431 20.8163 37.9575 20.7329L39.0625 14.3771L37.2912 15.519C37.2497 15.5461 37.2035 15.5635 37.1557 15.57C37.1078 15.5765 37.0593 15.5719 37.0131 15.5566C36.9669 15.5413 36.924 15.5156 36.887 15.4811C36.8501 15.4465 36.8199 15.4039 36.7983 15.3558L35 11.4167L33.2017 15.3558C33.1801 15.4039 33.1499 15.4465 33.113 15.4811C33.076 15.5156 33.0331 15.5413 32.9869 15.5566C32.9407 15.5719 32.8922 15.5765 32.8443 15.57C32.7965 15.5635 32.7503 15.5461 32.7087 15.519L30.9375 14.3771L32.0425 20.7329C32.0569 20.8163 32.0466 20.9027 32.0133 20.979C31.98 21.0554 31.9253 21.1176 31.8576 21.1564C31.7899 21.1952 31.7127 21.2085 31.6376 21.1942C31.5625 21.18 31.4936 21.1389 31.4412 21.0773L29.15 18.3344L28.5812 19.8267C28.5492 19.9099 28.4923 19.9783 28.4203 20.0201C28.3482 20.062 28.2654 20.0747 28.1858 20.0562L25.25 19.3615L26.2575 22.8173C26.2842 22.9082 26.2802 23.0069 26.2463 23.0948C26.2124 23.1827 26.1509 23.2537 26.0733 23.2946L24.925 23.8927L30.0221 28.4965C30.0792 28.5481 30.1203 28.6185 30.1397 28.6976C30.1592 28.7767 30.1559 28.8606 30.1304 28.9375L29.5021 30.8708L34.155 29.9585C34.2308 29.944 34.3086 29.9486 34.3827 29.972C34.4567 29.9955 34.5251 30.0371 34.5828 30.0939C34.6405 30.1507 34.686 30.2213 34.716 30.3003C34.746 30.3793 34.7598 30.4649 34.7562 30.5506L34.5125 35.7646H35.4875Z" fill="white"/>
</svg>
