<?xml version="1.0" encoding="UTF-8"?>
<svg xmlns="http://www.w3.org/2000/svg" id="icons" viewBox="0 0 60 60" width="512" height="512"><path d="M47.905,13.032A15.023,15.023,0,0,0,20,7.514a9.115,9.115,0,0,0-4.233-.435,8.99,8.99,0,0,0-7.725,8.037,9.3,9.3,0,0,0,.062,2.274A10.994,10.994,0,0,0,6.075,37.831c.007.074.009.156.017.23A2.353,2.353,0,0,0,7.56,40.006l2.191.875a20.68,20.68,0,0,0,2.48,5.981l-.925,2.171a2.3,2.3,0,0,0,.334,2.412,23.708,23.708,0,0,0,2.9,2.905,2.305,2.305,0,0,0,2.422.345l2.173-.926a20.68,20.68,0,0,0,5.981,2.48L26,58.443a2.349,2.349,0,0,0,1.933,1.464,21.782,21.782,0,0,0,4.133,0,2.353,2.353,0,0,0,1.945-1.468l.875-2.191a20.68,20.68,0,0,0,5.981-2.48l2.171.925a2.3,2.3,0,0,0,2.412-.333,23.716,23.716,0,0,0,2.905-2.9,2.3,2.3,0,0,0,.345-2.422l-.926-2.173a20.68,20.68,0,0,0,2.48-5.981l2.194-.876a2.349,2.349,0,0,0,1.464-1.933c.036-.355.058-.728.073-1.12a12.988,12.988,0,0,0-6.075-23.92Zm4.011,24.851a.344.344,0,0,1-.218.265l-2.679,1.071a1,1,0,0,0-.608.72,18.644,18.644,0,0,1-2.607,6.29,1,1,0,0,0-.081.936l1.133,2.657a.332.332,0,0,1-.037.348,22.065,22.065,0,0,1-2.661,2.66.33.33,0,0,1-.338.025l-2.655-1.132a1,1,0,0,0-.936.081,18.644,18.644,0,0,1-6.29,2.607,1,1,0,0,0-.72.608L32.149,57.7a.347.347,0,0,1-.278.222,19.865,19.865,0,0,1-3.754,0,.344.344,0,0,1-.265-.218l-1.071-2.679a1,1,0,0,0-.72-.608,18.644,18.644,0,0,1-6.29-2.607,1,1,0,0,0-.936-.081l-2.657,1.133a.33.33,0,0,1-.348-.037,21.568,21.568,0,0,1-2.66-2.661.331.331,0,0,1-.025-.338l1.132-2.655a1,1,0,0,0-.081-.936,18.644,18.644,0,0,1-2.607-6.29,1,1,0,0,0-.608-.72l-2.676-1.07a.347.347,0,0,1-.222-.278,19.865,19.865,0,0,1,0-3.754.344.344,0,0,1,.218-.265l2.679-1.071a1,1,0,0,0,.608-.72,18.644,18.644,0,0,1,2.607-6.29,1,1,0,0,0,.081-.936l-1.133-2.657a.332.332,0,0,1,.037-.348,22.065,22.065,0,0,1,2.661-2.66.335.335,0,0,1,.338-.025l2.655,1.132a1,1,0,0,0,.936-.081,18.644,18.644,0,0,1,6.29-2.607,1,1,0,0,0,.72-.608l1.07-2.676a.347.347,0,0,1,.278-.222,19.782,19.782,0,0,1,3.754,0,.344.344,0,0,1,.265.218l1.071,2.679a1,1,0,0,0,.72.608,18.644,18.644,0,0,1,6.29,2.607,1,1,0,0,0,.936.081l2.657-1.133a.334.334,0,0,1,.348.037,21.568,21.568,0,0,1,2.66,2.661.331.331,0,0,1,.025.338l-1.132,2.655a1,1,0,0,0,.081.936,18.644,18.644,0,0,1,2.607,6.29,1,1,0,0,0,.608.72l2.676,1.07a.347.347,0,0,1,.222.278A19.865,19.865,0,0,1,51.916,37.883ZM53.948,34.5c-.013-.189-.022-.384-.041-.566a2.354,2.354,0,0,0-1.467-1.94l-2.191-.875a20.68,20.68,0,0,0-2.48-5.981l.925-2.171a2.3,2.3,0,0,0-.334-2.412,23.638,23.638,0,0,0-2.9-2.905,2.3,2.3,0,0,0-2.422-.345l-2.173.926a20.68,20.68,0,0,0-5.981-2.48l-.876-2.194a2.349,2.349,0,0,0-1.933-1.464,21.865,21.865,0,0,0-4.133,0,2.353,2.353,0,0,0-1.945,1.468l-.875,2.191a20.68,20.68,0,0,0-5.981,2.48l-2.171-.925a2.3,2.3,0,0,0-2.412.334,23.638,23.638,0,0,0-2.9,2.9,2.3,2.3,0,0,0-.345,2.422l.926,2.173a20.68,20.68,0,0,0-2.48,5.981L7.557,32a2.349,2.349,0,0,0-1.464,1.933c-.048.476-.071.989-.082,1.543A8.983,8.983,0,0,1,9.005,19.227a1.516,1.516,0,0,0,1.144-1.768,7.313,7.313,0,0,1-.113-2.159,6.975,6.975,0,0,1,5.992-6.237,7.158,7.158,0,0,1,3.659.472,1.509,1.509,0,0,0,1.864-.691A13.022,13.022,0,0,1,45.967,13.68a1.5,1.5,0,0,0,1.438,1.329A10.98,10.98,0,0,1,53.948,34.5Z"/><path d="M30,19A17,17,0,1,0,47,36,17.019,17.019,0,0,0,30,19Zm0,32A15,15,0,1,1,45,36,15.017,15.017,0,0,1,30,51Z"/><path d="M30,25a10.922,10.922,0,0,0-8.8,4.4,1,1,0,0,0,1.6,1.2,8.992,8.992,0,0,1,16.178,4.964l-.271-.271a1,1,0,0,0-1.414,1.414l2,2a1,1,0,0,0,1.414,0l2-2a1,1,0,0,0-1.414-1.414l-.313.313A11.005,11.005,0,0,0,30,25Z"/><path d="M37.2,41.4a8.992,8.992,0,0,1-16.178-4.964l.271.271a1.015,1.015,0,0,0,1.414,0,1,1,0,0,0,0-1.414l-2-2a1,1,0,0,0-1.414,0l-2,2a1,1,0,0,0,1.414,1.414l.313-.313A10.992,10.992,0,0,0,38.8,42.6a1,1,0,0,0-1.6-1.2Z"/></svg>
