<svg id="Layer_1" enable-background="new 0 0 73 73" height="512" viewBox="0 0 73 73" width="512" xmlns="http://www.w3.org/2000/svg"><g id="_x34_6"><path d="m33.9785156 60.4226799c.0742188.0087891.1474609.0126953.2197266.0126953.4570313 0 .8828125-.1689453 1.1943359-.4794922.359375-.359375.5302734-.8740234.4677734-1.4130859-.0634766-.5380859-.3466797-1-.7792969-1.2666016-.0371094-.0234375-.0761719-.0429688-.1162109-.0585938l-.3652344-.1464844c-.1943359-.0771484-.4042969-.0683594-.5839844.0117188-.1230469-.0244141-.2539063-.0175781-.3837891.0234375-.4824219.1611328-.8642578.5449219-1.0498047 1.0537109-.1845703.5087891-.1376953 1.0498047.1298828 1.4833984.2666017.4326173.7285158.716797 1.2666017.779297zm.0136719-1.75c.0283203-.078125.0791016-.1308594.1142578-.1425781.0175591-.0058594.0351563-.0126953.0517578-.0195313l.1572266.0625c.0244141.0292969.046875.0810547.0546875.1435547.0097656.0830078-.0117188.1523438-.0371094.1777344-.0263672.0273438-.0947266.0517578-.1796875.0380859-.0830078-.0087891-.1464844-.0458984-.1650391-.0771484-.0195312-.03125-.024414-.1044922.0039063-.1826172z"/><path d="m12.1103516 62.565258c-.4316406-.2998047-.9638672-.3710938-1.4208984-.1914063-.1035156.0400391-.1943359.1005859-.2685547.1757813-.0976563.0371094-.1884766.0947266-.2666016.1738281-.3466797.3496094-.4931641.8662109-.390625 1.3828087.1025391.5146484.4345703.9355469.8867188 1.125.1767578.0742188.3652344.1113281.5566406.1113281.2988281 0 .6015625-.0908203.8701172-.2666016.4394531-.2871094.7060547-.7529297.7128906-1.2451134.0068359-.4931639-.2480469-.9658202-.6796875-1.2656249zm-.859375 1.2919922c-.0107422-.0166016-.0185547-.0488281-.0195313-.0742188.0234375.0087891.0488281.0185547.0605469.0068359-.0146484.0205079-.0507813.0478517-.0410156.0673829z"/><path d="m62.9121094 62.7068596c-.4287109-.3115234-.9667969-.4013672-1.4345703-.2421875-.1494141.0498047-.2724609.1435547-.3613281.2607422-.1396484.0410156-.2695313.1240234-.3681641.2460938-.3125.3857422-.4140625.9199219-.2724609 1.4287071.1425781.5107422.5058594.9150391.9726563 1.0830078.1601563.0576172.3300781.0859375.5.0859375.3251953 0 .6542969-.1025391.9384766-.3007813.4345703-.3027344.6962891-.7792969.7011719-1.2734337.0048826-.4951172-.2470705-.977539-.6757814-1.2880859zm-.9492188 1.3681602c-.0341797-.0244141-.0625-.1259727-.0507813-.1581993.0068359-.0078125.0126953-.015625.0185547-.0234375.0068359-.0019531.0126953-.0039063.0195313-.0068359h.0019531c.0429688 0 .1259766.0605469.1367188.0859375-.0117188.0400352-.0986328.0996055-.1259766.1025352z"/><path d="m60.3798828 59.4568596h3.0126953c.4140625 0 .75-.3359375.75-.75s-.3359375-.75-.75-.75h-3.0126953c-.4140625 0-.75.3359375-.75.75s.3359375.75.75.75z"/><path d="m33.2607422 54.7869377h2.8632622c.4140816 0 .75-.3359375.75-.75s-.3359184-.75-.75-.75h-2.8632622c-.4140625 0-.75.3359375-.75.75s.3359375.75.75.75z"/><path d="m10.2089844 60.0603752c.0273438 0 .0556641-.0019531.0839844-.0048828l2.7119141-.3017578c.4121094-.0458984.7080078-.4160156.6621094-.828125-.0449219-.4111328-.4091797-.7089844-.828125-.6621094l-2.7119141.3017578c-.4111328.0458984-.7080078.4160156-.6621094.828125.0419921.3837891.3671875.6669922.7441406.6669922z"/><path d="m24.3398438 23.0242405c0 5.6669922 4.6103516 10.2773457 10.2773438 10.2773457 5.6679688 0 10.2783203-4.6103535 10.2783203-10.2773457 0-5.6679688-4.6103516-10.2783203-10.2783203-10.2783203-5.6669923 0-10.2773438 4.6103515-10.2773438 10.2783203zm19.055664 0c0 4.8398438-3.9375 8.7773438-8.7783203 8.7773438-4.8398438 0-8.7773438-3.9375-8.7773438-8.7773438 0-4.8408203 3.9375-8.7783203 8.7773438-8.7783203 4.8408203 0 8.7783203 3.9375 8.7783203 8.7783203z"/><path d="m34.2724609 27.1365452c-2.1162109-.8466797-3.5703125-3.1982422-3.3828125-5.4707031.0341797-.4121094-.2724609-.7744141-.6855469-.8085938-.40625-.0380859-.7744141.2724609-.8085938.6855469-.2451172 2.9492188 1.5722656 5.8876953 4.3203125 6.9863281.0908203.0361328.1855469.0537109.2783203.0537109.2978516 0 .5791016-.1787109.6962891-.4716797.154297-.3847656-.033203-.821289-.4179687-.9746093z"/><path d="m36.6210938 29.1980686c.1953125 0 .3916016-.0761719.5380859-.2275391l-.4726563-.5878906.5624809.4980469c.2920113-.2919922.2763863-.75-.0146294-1.0429688-.2919922-.2939453-.7841797-.2773438-1.0751953.0117188-.0039063.0039063-.0732422.0722656-.0761719.0761719-.2890625.296875-.28125.7724609.015625 1.0605469.1455079.1416015.3339845.211914.5224611.211914z"/><path d="m59.9707031 12.8455296c.2441406-.3339844.171875-.8027344-.1630859-1.0478516-.3339844-.2460938-.8027344-.171875-1.0478516.1630859l-2.640625 3.6142578c-.0459595.0629883-.0698853.1337891-.09375.2038574-3.9584351-2.9304199-8.4328003-5.0432129-13.0994263-6.173584.0852051-.090332.1560669-.1960449.1882935-.3251953.3701172-1.4843745.6074219-3.0087886.7041016-4.5312495.0263672-.4130859-.2871094-.7695315-.7001953-.7958987-.4179688-.0507813-.7695313.2861331-.7958984.7001956-.0917969 1.4326172-.3154297 2.8671875-.6630859 4.2636714-.036499.1459961-.0146484.2875977.0308228.4199219-2.1833496-.4448242-4.3986816-.6884766-6.6167603-.6884766-.1142578 0-.2294922.0009766-.3427734.0019531-2.0424805.0219727-4.0700684.2507324-6.0518188.6643066.0740356-.1083984.1304932-.2297363.1387329-.3703613.0927734-1.6025386-.1728516-3.2363276-.7695313-4.7236323-.1542969-.3847659-.5908203-.5693362-.9755859-.4169924-.3847658.1542969-.5712892.5908206-.4169924.9755862.5146484 1.2841797.7451172 2.6943359.6640625 4.077148-.0167236.2954102.1433105.5549316.3840332.6914063-4.2548218 1.027832-8.2679443 2.9067383-11.7141724 5.4753418-.0328979-.0437012-.0581055-.0917969-.1015015-.1286621-.8808594-.7460938-1.6201172-1.6855469-2.1376953-2.7167969-.1835938-.3681641-.6328125-.5214844-1.0068359-.3330078-.3701172.1855469-.5195313.6367188-.3330078 1.0068359.5866699 1.1677246 1.4195557 2.2314453 2.4055176 3.0922852-2.5856323 2.1271973-4.8074341 4.6508789-6.5012207 7.4946289-.1374512.230957-.1315308.510498-.0057373.7399902-.0072632.861084-.0270386 2.0119629-.0270386 2.7058105 6.5970459 6.9487324 16.012207 11.5861835 25.5855103 11.92383v6.1928711h-20.3427734c-1.7421875 0-3.1601563 1.4179688-3.1601563 3.1601563v6.0302734h-3.46875c-.4140625 0-.75.3359375-.75.75v13.1064415c0 .4140625.3359375.75.75.75h9.3408203c.4140625 0 .75-.3359375.75-.75v-13.1064415c0-.4140625-.3359375-.75-.75-.75h-4.3720703v-6.0302734c0-.9150391.7451172-1.6601563 1.6601563-1.6601563h20.3427734v2.8691406h-3.7695313c-.4140625 0-.75.3359375-.75.75v13.1074219c0 .4140625.3359375.75.75.75h9.3408203c.4140625 0 .75-.3359375.75-.75v-13.1074219c0-.4140625-.3359375-.75-.75-.75h-4.0712891v-2.8691406h23.5332031c.9150391 0 1.6601563.7451172 1.6601563 1.6601563v6.4814453h-3.796875c-.4140625 0-.75.3359375-.75.75v13.1074181c0 .4140625.3359375.75.75.75h9.3408203c.4140625 0 .75-.3359375.75-.75v-13.1074181c0-.4140625-.3359375-.75-.75-.75h-4.0439453v-6.4814453c0-1.7421875-1.4179688-3.1601563-3.1601563-3.1601563h-23.533203v-6.1708984c9.8251343-.1157227 19.5859985-4.6142578 25.7749634-12.2463398.5785522-.713623 1.1360474-1.4697266 1.4188232-2.34375.2357178-.7285156.2342529-1.5495605-.0758057-2.2385254-.0252686-.1176758-.0692749-.2319336-.1511841-.3286133-.0127563-.0151367-.0266113-.0290527-.0393677-.0439453-.0064087-.0092773-.008667-.020752-.0152588-.0300293-.0016479.0024414-.003418.0046387-.0050659.0070801-1.5609131-1.8359375-3.2915039-3.4956055-5.1444092-4.9768066.0723877-.0478516.1461792-.0949707.2001953-.1691895zm-44.484375 54.4521465h-7.8408203v-11.6064415h7.8408203zm23.2021485-4.8203087h-7.8408203v-11.6074219h7.8408203zm26.6660156 5.2724571h-7.8408203v-11.607418h7.8408203zm-4.5478516-45.5527324c-5.8691406 7.9550781-15.078125 12.8945331-24.7529297 13.2451191-9.7197266.3544922-19.7050781-4.1162128-26.1738281-11.689455 5.0986328-8.171875 14.796875-13.4931641 24.8662109-13.6025391 9.6386719-.0722657 19.3652344 4.390625 26.0605469 12.046875z"/></g></svg>