<svg id="Capa_1" enable-background="new 0 0 512 512" height="512" viewBox="0 0 512 512" width="512" xmlns="http://www.w3.org/2000/svg"><g><path id="polygon2989_00000091712160093483359120000013545222466388029605_" d="m437.367 100.62-33.046 370.199-148.543 41.181-148.134-41.123-33.011-370.257z" fill="#004ce8"/><path id="polygon2991_00000130636505511401349330000011479272249651210121_" d="m376.03 447.246 28.24-316.352h-148.27v349.629z" fill="#0065f4"/><g fill="#ebebeb"><path id="polygon2993_00000027586116533142052040000014804943466300760462_" d="m150.31 268.217 4.07 45.41h101.62l19.533-22.705-19.533-22.705z"/><path id="polygon2995_00000098936504455534668280000009583779879621411251_" d="m256 176.305h-.157-113.711l4.128 45.411h109.74l19.533-22.706z"/><path id="polygon2997_00000011734588395863960860000002272664363377641402_" d="m256 433.399 19.533-24.081-19.533-23.165-.199.053-50.574-13.656-3.233-36.217h-24.575-21.01l6.362 71.301 93.02 25.823z"/></g><path id="path2999_00000183935336956994173500000009856227378309738643_" d="m160 0h55v23h-32v23h32v23h-55z"/><path id="path3001_00000096055226761582317920000005110122629658984122_" d="m226 0h55v20h-32v4h32v46h-55v-21h32v-4h-32z"/><path id="path3003_00000136402835624896882680000006132478931596835508_" d="m292 0h55v20h-32v4h32v46h-55v-21h32v-4h-32z"/><path id="polygon3005_00000173137955367200700520000015002477665718237887_" d="m311.761 313.627-5.271 58.894-50.647 13.67v47.244l93.094-25.801.683-7.672 10.671-119.551 1.108-12.194 8.198-91.912h-113.754v45.411h63.988l-4.132 46.501h-59.856v45.41z" fill="#fff"/></g></svg>