<svg id="Layer_5" enable-background="new 0 0 64 64" height="512" viewBox="0 0 64 64" width="512" xmlns="http://www.w3.org/2000/svg"><g><path d="m51 57h-4v-8h-4v2h2v8h6v4h12v-10h-12zm2-2h8v6h-8z"/><path d="m55 57h4v2h-4z"/><path d="m51 43h-11v2h11v4h12v-10h-12zm2-2h8v6h-8z"/><path d="m55 43h4v2h-4z"/><path d="m56.322 25c.441-.93.678-1.952.678-3 0-3.86-3.14-7-7-7-.595 0-1.179.074-1.747.221-1.519-3.71-5.187-6.221-9.253-6.221-.441 0-.878.039-1.31.096-2.293-4.942-7.185-8.096-12.69-8.096-6.253 0-11.657 4.076-13.409 10.009-4.774.215-8.591 4.166-8.591 8.991 0 1.591.415 3.115 1.194 4.47-.665.329-1.403.53-2.194.53h-1v4.437c0 12.495 5.909 24.508 15.806 32.135 1.195.921 2.684 1.428 4.194 1.428s2.999-.507 4.194-1.429c9.897-7.627 15.806-19.64 15.806-32.134v-.437h9c.337 0 .67-.037 1-.084v2.084h-6v6h-2v2h4v-6h4v2h12v-10zm-53.322 4.437v-2.508c3.323-.478 5.9-3.298 5.997-6.728 1.883-.329 6.623-1.082 11.003-1.188v4.056c-3.94.495-7 3.859-7 7.931v4.424c-1.763.774-3 2.531-3 4.576v4c0 5.728 4.402 10.442 10 10.949v5.907c-.712-.141-1.395-.423-1.974-.869-9.409-7.251-15.026-18.672-15.026-30.55zm18 23.563c-4.962 0-9-4.038-9-9v-4c0-1.654 1.346-3 3-3h12c1.654 0 3 1.346 3 3v4c0 4.962-4.038 9-9 9zm6-18h-12v-4c0-3.309 2.691-6 6-6s6 2.691 6 6zm12-5.563c0 11.879-5.617 23.299-15.026 30.551-.579.446-1.262.728-1.974.869v-5.907c5.598-.508 10-5.222 10-10.95v-4c0-2.045-1.237-3.802-3-4.576v-4.424c0-4.072-3.06-7.436-7-7.931v-4.056c4.38.106 9.12.859 11.003 1.188.097 3.43 2.674 6.25 5.997 6.728zm11-2.437h-9v-2h-1c-2.757 0-5-2.243-5-5 0-.177.01-.352.028-.524l.095-.91-.898-.175c-.291-.057-7.198-1.391-13.225-1.391s-12.934 1.334-13.225 1.391l-.898.175.095.91c.018.172.028.347.028.524 0 1.236-.467 2.353-1.213 3.227-.516-.99-.787-2.087-.787-3.227 0-3.86 3.14-7 7-7 .054 0 .106.004.159.008l.982.046.19-.807c1.28-5.444 6.079-9.247 11.669-9.247 4.583 0 8.673 2.55 10.705 6.579-.791.277-1.555.633-2.261 1.106l1.113 1.662c1.315-.881 2.851-1.347 4.443-1.347 3.533 0 6.69 2.37 7.676 5.764l.316 1.085 1.039-.445c.625-.268 1.288-.404 1.969-.404 2.757 0 5 2.243 5 5 0 1.093-.373 2.136-1.025 3h-2.975v1.889c-.328.067-.66.111-1 .111zm11 6h-8v-6h8z"/><path d="m55 29h4v2h-4z"/><path d="m21 39c-2.206 0-4 1.794-4 4 0 1.858 1.28 3.411 3 3.858v4.142h2v-4.142c1.72-.447 3-2 3-3.858 0-2.206-1.794-4-4-4zm0 6c-1.103 0-2-.897-2-2s.897-2 2-2 2 .897 2 2-.897 2-2 2z"/><path d="m15.248 12.779 1.95.442c.831-3.663 4.039-6.221 7.802-6.221v-2c-4.703 0-8.713 3.199-9.752 7.779z"/></g></svg>