<svg width="70" height="46" viewBox="0 0 70 46" fill="none" xmlns="http://www.w3.org/2000/svg">
<g clip-path="url(#clip0_100_117)">
<rect width="70" height="46" fill="white"/>
<path d="M0 0H70V15.3331H0V0Z" fill="#FF9933"/>
<path d="M0 15.3334H70V30.6666H0V15.3334Z" fill="white"/>
<path d="M0 30.6669H70V46H0V30.6669Z" fill="#128807"/>
<path d="M34.1762 31.1341C38.5299 31.1341 42.0592 27.6048 42.0592 23.2512C42.0592 18.8975 38.5299 15.3682 34.1762 15.3682C29.8226 15.3682 26.2933 18.8975 26.2933 23.2512C26.2933 27.6048 29.8226 31.1341 34.1762 31.1341Z" fill="#000088"/>
<path d="M34.1756 30.1482C37.9851 30.1482 41.0732 27.0601 41.0732 23.2506C41.0732 19.4412 37.9851 16.353 34.1756 16.353C30.3662 16.353 27.278 19.4412 27.278 23.2506C27.278 27.0601 30.3662 30.1482 34.1756 30.1482Z" fill="white"/>
<path d="M34.1749 24.6312C34.9368 24.6312 35.5544 24.0135 35.5544 23.2517C35.5544 22.4898 34.9368 21.8721 34.1749 21.8721C33.413 21.8721 32.7954 22.4898 32.7954 23.2517C32.7954 24.0135 33.413 24.6312 34.1749 24.6312Z" fill="#000088"/>
<path d="M40.966 24.5063C41.1602 24.5319 41.3384 24.3951 41.364 24.2009C41.3896 24.0067 41.2528 23.8285 41.0586 23.8029C40.8644 23.7773 40.6862 23.9141 40.6606 24.1083C40.635 24.3025 40.7718 24.4807 40.966 24.5063Z" fill="#000088"/>
<path d="M34.1745 30.1488L34.411 26.0103L34.1745 24.0395L33.938 26.0103L34.1745 30.1488Z" fill="#000088"/>
<path d="M40.4022 26.2285C40.5792 26.2998 40.7867 26.2077 40.8657 26.0229C40.9447 25.8382 40.8653 25.6307 40.6883 25.5595C40.5113 25.4882 40.3038 25.5803 40.2248 25.7651C40.1458 25.9498 40.2252 26.1573 40.4022 26.2285Z" fill="#000088"/>
<path d="M32.3717 29.9206L33.6776 25.9703L33.9886 24.0076L33.2565 25.8598L32.3717 29.9206Z" fill="#000088"/>
<path d="M39.4208 27.7402C39.5721 27.8554 39.7947 27.8195 39.9182 27.66C40.0416 27.5005 40.019 27.2779 39.8677 27.1626C39.7164 27.0474 39.4938 27.0833 39.3703 27.2428C39.2469 27.4022 39.2695 27.6249 39.4208 27.7402Z" fill="#000088"/>
<path d="M30.7136 29.2328L32.9919 25.7494L33.7921 23.9271L32.6062 25.5278L30.7136 29.2328Z" fill="#000088"/>
<path d="M38.0825 28.9471C38.1981 29.099 38.4208 29.1226 38.5799 28.9997C38.739 28.8769 38.7743 28.6542 38.6587 28.5024C38.5431 28.3505 38.3204 28.3269 38.1613 28.4497C38.0022 28.5726 37.9669 28.7952 38.0825 28.9471Z" fill="#000088"/>
<path d="M29.2877 28.1354L32.3841 25.358L33.6235 23.8L32.0656 25.039L29.2877 28.1354Z" fill="#000088"/>
<path d="M36.4937 29.7508C36.5731 29.9363 36.7806 30.0294 36.9572 29.9589C37.1337 29.8884 37.2124 29.6809 37.1329 29.4954C37.0534 29.31 36.8459 29.2168 36.6694 29.2874C36.4929 29.3579 36.4142 29.5654 36.4937 29.7508Z" fill="#000088"/>
<path d="M28.2113 26.6859L31.9108 24.8515L33.486 23.6568L31.6582 24.4164L28.2113 26.6859Z" fill="#000088"/>
<path d="M34.729 30.1271C34.759 30.3259 34.9372 30.47 35.127 30.449C35.3167 30.428 35.4463 30.2498 35.4162 30.051C35.3862 29.8522 35.208 29.7081 35.0182 29.7291C34.8284 29.7501 34.6989 29.9282 34.729 30.1271Z" fill="#000088"/>
<path d="M27.5185 25.017L31.5751 24.2205L33.4071 23.4751L31.4401 23.7244L27.5185 25.017Z" fill="#000088"/>
<path d="M32.9128 30.0352C32.8921 30.2253 33.0368 30.4035 33.2359 30.4332C33.435 30.463 33.6132 30.3331 33.6339 30.143C33.6546 29.953 33.5099 29.7748 33.3108 29.745C33.1116 29.7153 32.9334 29.8452 32.9128 30.0352Z" fill="#000088"/>
<path d="M27.2855 23.1946L31.4217 23.4512L33.3818 23.3081L31.4088 23.0918L27.2855 23.1946Z" fill="#000088"/>
<path d="M31.2022 29.4833C31.1295 29.6627 31.219 29.8702 31.4022 29.9468C31.5854 30.0234 31.793 29.9402 31.8657 29.7608C31.9385 29.5814 31.8489 29.3739 31.6657 29.2973C31.4825 29.2207 31.275 29.304 31.2022 29.4833Z" fill="#000088"/>
<path d="M27.5097 21.4569L31.4543 22.7591L33.4178 23.0532L31.5697 22.3174L27.5097 21.4569Z" fill="#000088"/>
<path d="M29.7005 28.5125C29.577 28.6721 29.5995 28.8948 29.7507 29.0099C29.9019 29.1251 30.1246 29.0891 30.2481 28.9295C30.3716 28.77 30.3491 28.5473 30.1979 28.4322C30.0467 28.317 29.824 28.353 29.7005 28.5125Z" fill="#000088"/>
<path d="M28.2102 19.8151L31.6571 22.0846L33.4849 22.8442L31.9097 21.6494L28.2102 19.8151Z" fill="#000088"/>
<path d="M28.493 27.1729C28.3334 27.2962 28.2972 27.5189 28.4122 27.6703C28.5272 27.8216 28.7499 27.8443 28.9095 27.721C29.0692 27.5977 29.1054 27.375 28.9904 27.2236C28.8754 27.0723 28.6527 27.0495 28.493 27.1729Z" fill="#000088"/>
<path d="M29.3063 18.3813L32.0428 21.4716L33.6069 22.6826L32.3965 21.1185L29.3063 18.3813Z" fill="#000088"/>
<path d="M27.6714 25.566C27.4871 25.644 27.3959 25.8515 27.4675 26.0295C27.5392 26.2074 27.7467 26.2885 27.931 26.2105C28.1153 26.1325 28.2066 25.925 28.1349 25.747C28.0633 25.569 27.8557 25.488 27.6714 25.566Z" fill="#000088"/>
<path d="M30.7352 17.2838L32.5775 20.9842L33.771 22.5638L33.0059 20.737L30.7352 17.2838Z" fill="#000088"/>
<path d="M27.295 23.8014C27.0974 23.8299 26.9552 24.0081 26.9774 24.1994C26.9996 24.3907 27.1778 24.5226 27.3754 24.4941C27.573 24.4656 27.7152 24.2874 27.693 24.0961C27.6708 23.9048 27.4927 23.7729 27.295 23.8014Z" fill="#000088"/>
<path d="M32.4019 16.5915L33.211 20.6488L33.9545 22.4844L33.6964 20.5181L32.4019 16.5915Z" fill="#000088"/>
<path d="M27.3928 21.9893C27.2035 21.9678 27.0253 22.1112 26.9948 22.3095C26.9642 22.5078 27.0929 22.686 27.2821 22.7075C27.4714 22.729 27.6496 22.5856 27.6801 22.3873C27.7107 22.189 27.582 22.0108 27.3928 21.9893Z" fill="#000088"/>
<path d="M34.2397 16.3596L33.9803 20.4962L34.1104 22.458L34.3239 20.4853L34.2397 16.3596Z" fill="#000088"/>
<path d="M27.9476 20.2745C27.7708 20.2032 27.5633 20.295 27.4841 20.4796C27.405 20.6642 27.4842 20.8717 27.661 20.9431C27.8378 21.0144 28.0453 20.9226 28.1245 20.738C28.2036 20.5534 28.1244 20.3459 27.9476 20.2745Z" fill="#000088"/>
<path d="M35.9786 16.5825L34.6725 20.5322L34.3603 22.495L35.0923 20.6433L35.9786 16.5825Z" fill="#000088"/>
<path d="M28.9293 18.7627C28.7783 18.6474 28.5556 18.6832 28.4319 18.8426C28.3083 19.002 28.3306 19.2247 28.4816 19.34C28.6327 19.4552 28.8554 19.4195 28.979 19.26C29.1026 19.1006 29.0804 18.8779 28.9293 18.7627Z" fill="#000088"/>
<path d="M37.6366 17.2718L35.3581 20.7549L34.557 22.5773L35.7428 20.9768L37.6366 17.2718Z" fill="#000088"/>
<path d="M30.2683 17.5551C30.1533 17.4036 29.9306 17.3806 29.7709 17.5037C29.6111 17.6269 29.5748 17.8496 29.6898 18.0011C29.8047 18.1527 30.0274 18.1757 30.1871 18.0525C30.3469 17.9293 30.3832 17.7067 30.2683 17.5551Z" fill="#000088"/>
<path d="M39.0615 18.3667L35.9646 21.1459L34.723 22.7036L36.2804 21.4634L39.0615 18.3667Z" fill="#000088"/>
<path d="M31.8575 16.7486C31.7781 16.5631 31.5706 16.4699 31.394 16.5405C31.2175 16.611 31.1389 16.8185 31.2184 17.0039C31.2978 17.1894 31.5053 17.2826 31.6818 17.212C31.8583 17.1415 31.937 16.934 31.8575 16.7486Z" fill="#000088"/>
<path d="M40.1398 19.8154L36.4403 21.6497L34.8651 22.8444L36.6929 22.0849L40.1398 19.8154Z" fill="#000088"/>
<path d="M33.6222 16.3742C33.5922 16.1754 33.414 16.0312 33.2242 16.0522C33.0344 16.0732 32.9049 16.2514 32.9349 16.4502C32.9649 16.649 33.1431 16.7932 33.3329 16.7722C33.5227 16.7512 33.6522 16.573 33.6222 16.3742Z" fill="#000088"/>
<path d="M40.8326 21.4843L36.776 22.2807L34.9439 23.0262L36.911 22.7769L40.8326 21.4843Z" fill="#000088"/>
<path d="M35.4395 16.4673C35.4596 16.2779 35.3141 16.0998 35.1144 16.0693C34.9147 16.0389 34.7366 16.1678 34.7164 16.3572C34.6963 16.5466 34.8418 16.7248 35.0415 16.7552C35.2411 16.7856 35.4193 16.6567 35.4395 16.4673Z" fill="#000088"/>
<path d="M41.0651 23.3152L36.929 23.0562L34.9701 23.1884L36.9434 23.4024L41.0651 23.3152Z" fill="#000088"/>
<path d="M37.1503 17.0214C37.2223 16.8428 37.1315 16.6353 36.9475 16.5579C36.7635 16.4805 36.556 16.5625 36.484 16.7411C36.4121 16.9197 36.5028 17.1272 36.6868 17.2046C36.8708 17.282 37.0783 17.2 37.1503 17.0214Z" fill="#000088"/>
<path d="M40.8427 25.048L36.8952 23.7445L34.9321 23.4447L36.7822 24.1793L40.8427 25.048Z" fill="#000088"/>
<path d="M38.6601 18.0015C38.7772 17.848 38.7443 17.6254 38.5867 17.5041C38.4291 17.3828 38.2064 17.4089 38.0893 17.5624C37.9722 17.7158 38.0051 17.9385 38.1627 18.0598C38.3203 18.181 38.543 18.1549 38.6601 18.0015Z" fill="#000088"/>
<path d="M40.1508 26.7065L36.6755 24.4303L34.8519 23.6402L36.447 24.8283L40.1508 26.7065Z" fill="#000088"/>
<path d="M39.8679 19.3406C40.0211 19.2234 40.0469 19.0007 39.9254 18.8433C39.804 18.6858 39.5813 18.6532 39.428 18.7705C39.2748 18.8877 39.249 19.1104 39.3705 19.2678C39.4919 19.4253 39.7146 19.4579 39.8679 19.3406Z" fill="#000088"/>
<path d="M39.0576 28.1331L36.2871 25.0379L34.728 23.8043L35.9622 25.3635L39.0576 28.1331Z" fill="#000088"/>
<path d="M40.6879 20.9443C40.8668 20.8712 40.9493 20.6637 40.8723 20.4808C40.7952 20.2978 40.5877 20.2087 40.4088 20.2817C40.2299 20.3548 40.1473 20.5623 40.2244 20.7452C40.3015 20.9282 40.509 21.0173 40.6879 20.9443Z" fill="#000088"/>
<path d="M37.6297 29.2262L35.7517 25.5226L34.5636 23.9287L35.3536 25.7524L37.6297 29.2262Z" fill="#000088"/>
<path d="M41.0642 22.7087C41.2564 22.6851 41.3897 22.5069 41.3621 22.3107C41.3344 22.1145 41.1562 21.9746 40.9641 21.9982C40.7719 22.0218 40.6386 22.2 40.6662 22.3962C40.6939 22.5924 40.8721 22.7323 41.0642 22.7087Z" fill="#000088"/>
<path d="M35.9681 29.9166L35.1059 25.8569L34.3703 24.0102L34.6656 25.974L35.9681 29.9166Z" fill="#000088"/>
</g>
<defs>
<clipPath id="clip0_100_117">
<rect width="70" height="46" fill="white"/>
</clipPath>
</defs>
</svg>
