<svg width="19" height="20" viewBox="0 0 19 20" fill="none" xmlns="http://www.w3.org/2000/svg">
<path d="M9.07031 2.53568C11.4609 2.53568 11.7422 2.54153 12.6914 2.58841C13.5645 2.62357 14.0332 2.77591 14.3496 2.89896C14.7656 3.06302 15.0645 3.26224 15.375 3.57864C15.6855 3.89505 15.8848 4.19974 16.0488 4.62161C16.1719 4.94388 16.3125 5.42435 16.3594 6.31497C16.4062 7.27591 16.4121 7.56302 16.4121 9.99466C16.4121 12.4263 16.4062 12.7134 16.3594 13.6743C16.3242 14.5591 16.1777 15.0454 16.0488 15.3677C15.8848 15.7896 15.6914 16.0943 15.375 16.4107C15.0645 16.7271 14.7656 16.9263 14.3496 17.0904C14.0332 17.2193 13.5586 17.3658 12.6914 17.4009C11.748 17.4478 11.4609 17.4536 9.07031 17.4536C6.67969 17.4536 6.39844 17.4478 5.44922 17.4009C4.57617 17.3658 4.10742 17.2134 3.79102 17.0904C3.375 16.9263 3.07617 16.7271 2.76563 16.4107C2.45508 16.0943 2.25586 15.7896 2.0918 15.3677C1.96875 15.0454 1.82813 14.565 1.78125 13.6743C1.73438 12.7134 1.72852 12.4263 1.72852 9.99466C1.72852 7.56302 1.73438 7.27591 1.78125 6.31497C1.81641 5.43021 1.96289 4.94388 2.0918 4.62161C2.25586 4.19974 2.44922 3.89505 2.76563 3.57864C3.07617 3.26224 3.375 3.06302 3.79102 2.89896C4.10742 2.77005 4.58203 2.62357 5.44922 2.58841C6.39258 2.54739 6.67969 2.53568 9.07031 2.53568ZM9.07031 0.89505C6.63867 0.89505 6.33398 0.906769 5.38477 0.953644C4.43555 1.00052 3.7793 1.15286 3.21094 1.37552C2.61914 1.60989 2.12109 1.92044 1.62891 2.43021C1.13086 2.93997 0.826172 3.44388 0.597656 4.04739C0.375 4.62161 0.222656 5.28958 0.181641 6.25638C0.134766 7.22318 0.128906 7.53372 0.128906 10.0064C0.128906 12.479 0.140625 12.7896 0.181641 13.7564C0.228516 14.7232 0.380859 15.3853 0.597656 15.9654C0.826172 16.563 1.13086 17.0728 1.62891 17.5826C2.12695 18.0923 2.625 18.4029 3.21094 18.6372C3.7793 18.8658 4.43555 19.0181 5.38477 19.0591C6.33984 19.106 6.64453 19.1177 9.07031 19.1177C11.4961 19.1177 11.8066 19.106 12.7559 19.0591C13.7051 19.0122 14.3613 18.8599 14.9297 18.6372C15.5215 18.4029 16.0195 18.0923 16.5117 17.5826C17.0098 17.0728 17.3145 16.5689 17.543 15.9654C17.7656 15.3911 17.918 14.7232 17.959 13.7564C18.0059 12.7896 18.0117 12.479 18.0117 10.0064C18.0117 7.53372 18 7.22318 17.959 6.25638C17.9121 5.28958 17.7598 4.62747 17.543 4.04739C17.3145 3.44974 17.0098 2.93997 16.5117 2.43021C16.0137 1.92044 15.5156 1.60989 14.9297 1.37552C14.3613 1.147 13.7051 0.994659 12.7559 0.953644C11.8066 0.906769 11.4961 0.89505 9.07031 0.89505Z" fill="white"/>
<path d="M9.07031 5.32474C6.52734 5.32474 4.47656 7.41653 4.47656 10.0005C4.47656 12.5845 6.5332 14.6763 9.07031 14.6763C11.6074 14.6763 13.6641 12.5845 13.6641 10.0005C13.6641 7.41653 11.6074 5.32474 9.07031 5.32474ZM9.07031 13.0357C7.42383 13.0357 6.08789 11.6822 6.08789 10.0005C6.08789 8.31888 7.42383 6.96536 9.07031 6.96536C10.7168 6.96536 12.0527 8.31888 12.0527 10.0005C12.0527 11.6822 10.7168 13.0357 9.07031 13.0357Z" fill="white"/>
<path d="M13.8457 6.22708C14.4379 6.22708 14.918 5.73914 14.918 5.13724C14.918 4.53533 14.4379 4.04739 13.8457 4.04739C13.2535 4.04739 12.7734 4.53533 12.7734 5.13724C12.7734 5.73914 13.2535 6.22708 13.8457 6.22708Z" fill="white"/>
</svg>
