<svg width="34" height="28" viewBox="0 0 34 28" fill="none" xmlns="http://www.w3.org/2000/svg">
<g clip-path="url(#clip0_5_42)">
<path d="M33.4821 11.036C33.1585 10.1752 32.4939 9.40671 31.685 8.85259C29.3499 7.35029 25.7912 7.2433 23.3851 8.60146C22.0729 9.27931 21.2104 10.6207 20.942 12.0022C20.4551 14.2717 20.5809 16.9721 22.3066 18.6733C24.3189 20.4606 27.2477 20.8555 29.8521 20.1213C29.9758 20.0972 30.3679 19.9971 30.6384 19.8518L30.7145 19.8187C31.5234 19.4781 32.2948 18.9236 32.8707 18.1727C34.1999 16.2036 34.291 13.2533 33.4821 11.036M29.2419 16.1326C29.15 16.563 28.8643 17.0089 28.4137 17.1706C27.6963 17.4903 26.7258 17.4017 26.0612 17.0277C25.5038 16.6328 25.4321 15.9717 25.3604 15.3461C25.3059 14.1129 25.2181 12.807 25.559 11.6796C25.8262 10.9813 26.5634 10.8016 27.23 10.7489C27.93 10.7489 28.6116 10.8572 29.044 11.4292C29.3132 11.8396 29.2967 12.3766 29.3499 12.8601C29.331 13.8789 29.4212 15.0941 29.2419 16.1326ZM7.95128 17.2433C7.35803 17.2065 6.69344 17.2592 6.11913 17.1877L6.13686 10.9082L6.17314 10.8559L7.95128 10.8384C7.96982 9.81914 7.98755 8.726 7.93274 7.79702L1.16071 7.77782L0.0455422 7.79742C0.0278091 8.74478 0.0278091 9.85263 0.0455422 10.8196C0.656931 10.8388 1.23084 10.8196 1.82409 10.8755V16.957L1.80676 17.2069L0.0278091 17.2437C-0.00926972 18.2272 -0.00926972 19.2117 0.0278091 20.1952H7.95088L7.95128 17.2433V17.2433ZM27.893 21.5354C27.1393 22.6277 26.187 23.6829 25.1472 24.5036C25.1093 24.5596 25.0017 24.5384 24.9674 24.4869C24.5168 24.2015 24.032 23.9679 23.5999 23.6829C24.1755 22.9858 24.7328 22.2884 25.1641 21.5162H24.6051C24.1585 22.1806 23.6902 22.8776 23.0978 23.466C22.3066 23.1447 21.5884 22.8588 20.78 22.6424L20.6901 22.5742C20.8158 22.2128 21.0488 21.8735 21.1201 21.5154H20.6353L20.1504 22.4819C19.0917 22.2496 17.9233 22.123 16.8452 22.0523C16.7908 21.8919 16.8622 21.6591 16.7908 21.5154H16.3237C16.2866 21.7306 16.3777 21.8927 16.2697 22.0711C15.1558 22.123 14.0781 22.2496 13.0371 22.4664L12.5502 21.5154C12.3725 21.5154 12.1726 21.4811 12.0484 21.5346L12.4966 22.5901L12.443 22.6424C11.6378 22.8784 10.8461 23.1595 10.0716 23.4844L10.0003 23.4477C9.49608 22.8931 9.01083 22.2876 8.61506 21.6791C8.526 21.3733 8.1665 21.5521 7.96861 21.5162C8.39824 22.3043 8.97497 23.0009 9.54887 23.7176C9.06403 24.0046 8.58081 24.3248 8.07541 24.5596C6.97644 23.7116 6.01844 22.6909 5.23771 21.5362C5.02169 21.5011 4.87943 21.517 4.66219 21.5362C5.95591 23.5755 7.96861 25.3636 10.0708 26.4192C10.0708 26.4192 10.0708 26.4033 10.0901 26.4033C10.1055 26.4033 10.1413 26.4363 10.1055 26.4551C11.5257 27.153 13.0358 27.6536 14.6334 27.8692C20.1496 28.6018 25.4144 26.224 28.4669 21.5362C28.2761 21.5163 28.0838 21.516 27.893 21.5354M20.4027 23.1451L20.4555 23.1091C21.2302 23.288 21.9653 23.5387 22.6484 23.8777C22.0729 24.5379 21.3361 25.1117 20.6542 25.5943C20.2415 25.8438 19.8268 26.115 19.3952 26.3281L18.6242 25.9884L18.677 25.8647C19.3251 24.9888 19.9002 24.0933 20.4027 23.1451M16.8622 22.6081C17.8871 22.6277 18.9115 22.7347 19.8623 22.9662L19.8812 23.0205C19.3791 23.9855 18.7487 24.9177 18.0672 25.7924C17.7601 25.8291 17.474 25.7054 17.1689 25.6862L16.8618 25.6495C16.8267 24.5939 16.8078 23.6637 16.8622 22.6081ZM13.3961 22.9299C14.3304 22.751 15.3 22.6081 16.3056 22.6081L16.3241 25.6344C15.9461 25.7209 15.533 25.7209 15.1735 25.8128C14.4368 24.934 13.8266 23.9855 13.3063 23.0009L13.3961 22.9299ZM10.502 23.8968C11.2045 23.5559 11.94 23.3039 12.6937 23.1087L12.7666 23.1275C13.2861 24.1116 13.9338 25.041 14.5802 25.9712C14.3308 26.1154 14.0237 26.2015 13.773 26.3469C12.558 25.7388 11.4524 24.9283 10.5024 23.9491V23.8968H10.502ZM12.8206 26.9553C11.3113 26.5605 9.90877 25.881 8.61547 24.9524V24.8969C9.0467 24.631 9.47955 24.344 9.94505 24.1451C10.9699 25.1676 12.0291 25.9369 13.1789 26.6687C13.0894 26.7761 12.946 26.8839 12.8206 26.9553ZM19.4855 27.1865C17.5816 27.6005 15.4604 27.6165 13.557 27.1522C13.5207 27.0632 13.6468 27.044 13.7004 26.9917C15.3714 25.8994 17.9753 25.8994 19.612 27.0787C19.6652 27.1865 19.5217 27.1522 19.4855 27.1865M21.2108 26.6875L20.3665 26.9549C20.2222 26.8835 20.0972 26.7761 19.9703 26.6683L20.0066 26.6136C21.1568 25.9365 22.1982 25.1113 23.1868 24.1276C23.6721 24.324 24.1396 24.5939 24.572 24.8965C23.5649 25.7054 22.3965 26.2395 21.2108 26.6875M5.20265 6.41885C5.64705 5.79574 6.13317 5.20429 6.65757 4.64867C7.12307 4.20154 7.55591 3.77237 8.0597 3.44896C8.5272 3.75277 9.04751 4.00594 9.49648 4.29096C8.9399 4.98515 8.36479 5.68587 7.95169 6.43519C8.07662 6.49113 8.31118 6.47357 8.49134 6.43519C8.9399 5.77448 9.42353 5.11296 10.0007 4.52209C10.7712 4.80915 11.5269 5.11215 12.3185 5.32775L12.3882 5.39881L11.9408 6.43519C12.1391 6.47357 12.2649 6.45479 12.4611 6.43519C12.6223 6.13301 12.7473 5.79408 12.927 5.48823C13.9705 5.72181 15.0667 5.84635 16.1806 5.88106C16.3233 6.00806 16.2161 6.27511 16.2701 6.43519H16.755C16.8078 6.2596 16.7368 6.06032 16.8078 5.90107C17.8508 5.84553 18.9462 5.73814 19.9558 5.48742L20.0432 5.5062L20.5285 6.43437C20.6905 6.43437 20.9057 6.47275 21.0315 6.39762L20.5813 5.36287L20.6188 5.32694C21.4438 5.11215 22.2176 4.79037 23.0079 4.469C23.5665 5.05906 24.086 5.75652 24.5547 6.43396C24.7514 6.43396 24.9493 6.45356 25.0931 6.39721C24.8713 5.99785 24.6124 5.62075 24.3201 5.27099C24.0829 4.92842 23.8181 4.60623 23.5286 4.30771V4.21501L24.7864 3.48285L24.9678 3.41139C26.0617 4.25028 27.0189 5.2578 27.8047 6.39721C28.0203 6.39721 28.2005 6.47234 28.3806 6.3821C25.9705 2.73599 22.0007 0.390043 17.7089 0.0523415L17.69 0.0870508L17.6533 0.0523415C17.1689 -0.000335073 16.5736 -0.0211607 16.0533 0.0315159C15.8562 0.0159987 15.6233 0.0315158 15.3891 0.0523415C11.0779 0.390043 7.10775 2.62737 4.62713 6.436C4.80688 6.41885 5.0225 6.49154 5.20265 6.41885M12.6598 4.84713L12.5881 4.86265C11.8505 4.66787 11.1311 4.43307 10.4484 4.13008L10.4831 4.02268C11.4713 3.07491 12.5131 2.28721 13.663 1.68041C13.9338 1.78781 14.203 1.87642 14.4722 2.00341L14.4194 2.14307C13.7355 3.00386 13.1979 3.93203 12.6598 4.84713ZM16.2338 5.32857C15.7321 5.40003 15.2827 5.31264 14.7777 5.27303C14.2949 5.20117 13.6827 5.14931 13.1979 4.98597C13.719 4.00676 14.3308 3.05695 15.0667 2.18268L16.2169 2.34152C16.2701 3.2701 16.2338 4.34405 16.2338 5.32857M16.7904 5.34776C16.755 4.39673 16.7735 3.34279 16.7904 2.35868C17.1511 2.30641 17.5445 2.25087 17.9048 2.1982C18.6052 3.09125 19.2896 4.00676 19.7571 4.98597C18.7856 5.22411 17.7899 5.34554 16.7904 5.34776ZM22.5235 4.09373C21.8214 4.39632 21.102 4.68298 20.3306 4.84713C19.774 3.89895 19.1634 2.95118 18.4787 2.03527C18.7306 1.8952 19.0377 1.78781 19.3065 1.6453C20.4765 2.23495 21.607 3.07491 22.5581 4.03779L22.5235 4.09373V4.09373ZM20.2222 1.03523C21.7315 1.42969 23.151 2.10836 24.4447 3.03857L24.4088 3.11003L23.1703 3.80667H23.0788C22.1281 2.8442 21.0145 2.00341 19.8812 1.33985C19.9171 1.21449 20.0977 1.12425 20.2222 1.03523M19.5044 0.855556V0.893533C17.9403 2.03527 15.4076 2.14307 13.7556 1.0875C13.663 1.01604 13.4856 0.981327 13.4663 0.855965C15.3718 0.410869 17.6162 0.374934 19.5044 0.855556M8.54413 3.07491C9.67704 2.23495 10.9341 1.60895 12.2641 1.17937C12.3185 1.12343 12.3531 1.07075 12.4241 1.07075V1.10751C12.5675 1.14262 12.6759 0.98051 12.8013 1.08668C12.9097 1.17937 13.0367 1.25002 13.1253 1.33904C12.0122 2.03527 10.9155 2.85971 9.90918 3.85934C9.42394 3.68376 8.97658 3.41384 8.54373 3.11003L8.54413 3.07491V3.07491ZM16.2524 17.3829C14.5637 17.8488 12.73 17.4936 11.5088 16.2036C11.3657 16.0248 11.275 15.8116 11.1307 15.6336L8.70615 15.6507C8.66786 17.0991 8.65093 18.7631 8.70615 20.1948L11.4 20.1772L11.4358 19.3181C11.7425 19.461 12.0484 19.6394 12.3531 19.7999C14.2215 20.588 16.6268 20.7669 18.4779 19.7999C19.8264 19.0506 20.5454 17.6022 20.3471 16.0427C20.1504 14.5241 18.7125 13.1459 17.2583 12.7715L12.9093 11.5003L12.5877 11.3386C12.4438 11.2145 12.3535 11.0544 12.3886 10.8559C12.73 10.2671 13.5215 10.446 14.1143 10.4619C15.3718 10.6411 16.6651 11.0703 17.4022 12.2337C18.1917 12.2337 19.1078 12.2492 19.9695 12.2149C20.0062 10.7485 19.9554 9.46143 19.934 7.97628C19.1256 7.9575 18.1369 7.9575 17.3297 7.99506C17.2934 8.20781 17.3643 8.5108 17.2745 8.72641L16.4487 8.27886C14.4714 7.43849 11.7043 7.35069 9.90837 8.65658C8.74 9.5137 8.38171 11.0536 8.68721 12.4125C8.91975 13.6984 10.1413 14.6474 11.3097 15.0933C12.9085 15.665 14.5786 16.0791 16.1984 16.6328C16.3588 16.7055 16.574 16.8676 16.5393 17.064C16.5401 17.2228 16.3773 17.3147 16.2524 17.3829" fill="white"/>
</g>
<defs>
<clipPath id="clip0_5_42">
<rect width="34" height="28" fill="white"/>
</clipPath>
</defs>
</svg>
