<svg width="19" height="19" viewBox="0 0 19 19" fill="none" xmlns="http://www.w3.org/2000/svg">
<path d="M2.98292 5.19704C4.19132 5.19704 5.17092 4.21744 5.17092 3.00904C5.17092 1.80065 4.19132 0.821045 2.98292 0.821045C1.77452 0.821045 0.794922 1.80065 0.794922 3.00904C0.794922 4.21744 1.77452 5.19704 2.98292 5.19704Z" fill="white"/>
<path d="M7.23673 6.85502V18.994H11.0057V12.991C11.0057 11.407 11.3037 9.87302 13.2677 9.87302C15.2047 9.87302 15.2287 11.684 15.2287 13.091V18.995H18.9997V12.338C18.9997 9.06802 18.2957 6.55502 14.4737 6.55502C12.6387 6.55502 11.4087 7.56202 10.9057 8.51502H10.8547V6.85502H7.23673ZM1.09473 6.85502H4.86973V18.994H1.09473V6.85502Z" fill="white"/>
</svg>
