<svg width="542" height="99" viewBox="0 0 542 99" fill="none" xmlns="http://www.w3.org/2000/svg">
<path d="M107.81 45.45V36H145.72V45.47H131.5V78.81H122V45.45H107.81Z" fill="white"/>
<path d="M150 36H174C177.42 36.0051 180.724 37.2419 183.307 39.484C185.89 41.7261 187.579 44.8235 188.065 48.2091C188.55 51.5947 187.8 55.0419 185.952 57.9198C184.104 60.7976 181.281 62.9135 178 63.88L188.2 78.88H176.81L167 64.46L160.53 55H174C174.645 55.0295 175.29 54.9279 175.895 54.7013C176.5 54.4747 177.053 54.1277 177.52 53.6814C177.988 53.2351 178.359 52.6987 178.614 52.1046C178.868 51.5105 178.999 50.8711 178.999 50.225C178.999 49.5789 178.868 48.9395 178.614 48.3454C178.359 47.7513 177.988 47.2149 177.52 46.7686C177.053 46.3223 176.5 45.9753 175.895 45.7487C175.29 45.5221 174.645 45.4205 174 45.45H159.46V78.81H150V36Z" fill="white"/>
<path d="M201.94 36V78.81H192.52V36H201.94Z" fill="white"/>
<path d="M206.22 78.81V36H226.14C231.413 36.021 236.465 38.1237 240.195 41.8506C243.926 45.5775 246.034 50.6268 246.06 55.9V58.9C246.036 64.1749 243.93 69.2268 240.199 72.9558C236.468 76.6849 231.415 78.789 226.14 78.81H206.22ZM236.59 55.9C236.579 53.1317 235.475 50.4798 233.518 48.5224C231.56 46.5649 228.908 45.4605 226.14 45.45H215.65V69.35H226.14C228.908 69.3395 231.56 68.2351 233.518 66.2776C235.475 64.3202 236.579 61.6683 236.59 58.9V55.9Z" fill="white"/>
<path d="M259.76 62.11V78.81H250.33V36H259.76V52.69H278.47V36H287.9V78.81H278.47V62.11H259.76Z" fill="white"/>
<path d="M292.17 36H303.61L313.76 51L323.87 36H335.26L318.47 60.91V78.81H309V60.91L292.17 36Z" fill="white"/>
<path d="M337.35 78.81H326.69L328.23 75.81L329.04 74.22L333.16 66.34L343.65 46.17L349 36L354.31 46.24L364.85 66.41L368.92 74.29L369.78 75.88L371.32 78.88H360.61L359.07 75.88H338.9L337.35 78.81ZM349 56.45L343.82 66.39H354.18L349 56.45Z" fill="white"/>
<path d="M379.83 45.45V36H417.74V45.47H403.52V78.81H394.05V45.45H379.83Z" fill="white"/>
<path d="M431.44 62.1099V69.3499H456.67V78.7699H422V35.9399H456.65V45.3999H431.44V62.1099ZM438.44 52.6399H453.69V62.1099H435L438.44 52.6399Z" fill="white"/>
<path d="M493.84 64.68L499.92 67.6299C498.604 70.194 496.764 72.4529 494.519 74.2605C492.274 76.0682 489.675 77.3841 486.889 78.1232C484.103 78.8623 481.193 79.008 478.348 78.551C475.502 78.0939 472.784 77.0442 470.37 75.47C466.47 72.891 463.528 69.0988 462 64.68C461.337 62.5564 461 60.3446 461 58.1199V56.6699C461 54.4453 461.337 52.2335 462 50.11C463.536 45.6867 466.489 41.894 470.4 39.32C472.813 37.7489 475.529 36.7008 478.371 36.2434C481.214 35.786 484.121 35.9293 486.905 36.6642C489.69 37.3991 492.289 38.7092 494.535 40.5101C496.782 42.3109 498.627 44.5626 499.95 47.1199L493.87 50.1199L491.47 51.32C490.562 49.6483 489.244 48.2345 487.641 47.211C486.037 46.1874 484.2 45.5876 482.302 45.4677C480.403 45.3478 478.505 45.7117 476.786 46.5254C475.066 47.339 473.581 48.5759 472.47 50.1199C471.123 52.0436 470.394 54.3318 470.38 56.68V58.13C470.391 60.4786 471.12 62.7677 472.47 64.69C473.512 66.1355 474.883 67.3127 476.47 68.1246C478.056 68.9365 479.813 69.3599 481.595 69.3599C483.377 69.3599 485.134 68.9365 486.72 68.1246C488.307 67.3127 489.678 66.1355 490.72 64.69C490.99 64.3069 491.234 63.906 491.45 63.49L493.84 64.68Z" fill="white"/>
<path d="M513.62 62.11V78.81H504.2V36H513.62V52.69H532.34V36H541.76V78.81H532.34V62.11H513.62Z" fill="white"/>
<path d="M134.82 0H108.01V26.81H134.82V0Z" fill="white"/>
<path d="M72.08 0H36.28V26.81H71.87V62.95H98.89V26.81V25.11V0H72.08Z" fill="white"/>
<path d="M35.97 36.01H0V62.98H35.97V81.08V98.94H62.94V81.08V62.98V54.12V36.01H35.97Z" fill="white"/>
<path d="M98.8901 36.0701H71.8701V62.9501H98.8901V36.0701Z" fill="white"/>
</svg>
