<?xml version="1.0" encoding="UTF-8"?>
<svg xmlns="http://www.w3.org/2000/svg" id="Layer_1" data-name="Layer 1" viewBox="0 0 64 64" width="512" height="512"><path d="M40.58,20.84a1,1,0,0,1,0-1.68,1,1,0,0,0,.4-1A9.14,9.14,0,0,0,39.66,15a1,1,0,0,0-1-.43,1,1,0,0,1-1.19-1.19,1,1,0,0,0-.43-1A9.14,9.14,0,0,0,33.86,11a1,1,0,0,0-1,.4,1.06,1.06,0,0,1-1.68,0,1,1,0,0,0-1-.4A9.14,9.14,0,0,0,27,12.34a1,1,0,0,0-.43,1,1,1,0,0,1-1.19,1.19,1,1,0,0,0-1,.43A9.14,9.14,0,0,0,23,18.14a1,1,0,0,0,.4,1,1,1,0,0,1,0,1.68,1,1,0,0,0-.4,1A9.14,9.14,0,0,0,24.34,25a1,1,0,0,0,1,.43,1,1,0,0,1,1.19,1.19,1,1,0,0,0,.43,1A9.14,9.14,0,0,0,30.14,29a1,1,0,0,0,1-.4,1.06,1.06,0,0,1,1.68,0,1,1,0,0,0,.81.42l.21,0A9.14,9.14,0,0,0,37,27.66a1,1,0,0,0,.43-1,1,1,0,0,1,1.19-1.19,1,1,0,0,0,1-.43A9.14,9.14,0,0,0,41,21.86,1,1,0,0,0,40.58,20.84ZM38.89,22a7.21,7.21,0,0,1-.62,1.49,3,3,0,0,0-2.8,2.8,7.21,7.21,0,0,1-1.49.62,3,3,0,0,0-4,0,7.21,7.21,0,0,1-1.49-.62,3,3,0,0,0-2.8-2.8A7.21,7.21,0,0,1,25.11,22a3,3,0,0,0,0-4,7.21,7.21,0,0,1,.62-1.49,3,3,0,0,0,2.8-2.8A7.21,7.21,0,0,1,30,13.11a3.11,3.11,0,0,0,4,0,7.21,7.21,0,0,1,1.49.62,3,3,0,0,0,2.8,2.8A7.21,7.21,0,0,1,38.89,18a3,3,0,0,0,0,4Z"/><path d="M32,16a4,4,0,1,0,4,4A4,4,0,0,0,32,16Zm0,6a2,2,0,1,1,2-2A2,2,0,0,1,32,22Z"/><path d="M27,5a9,9,0,0,0-9,9h2a7,7,0,0,1,7-7Z"/><path d="M62.39,48.08,56,45.34V40a1,1,0,0,0-1-1H34.82A3,3,0,0,0,33,37.18V35H47a11,11,0,0,0,2.64-21.67A10,10,0,0,0,40,6a9.85,9.85,0,0,0-2.52.33A13,13,0,0,0,14,13.41,11,11,0,0,0,17,35H31v2.18A3,3,0,0,0,29.18,39H9a1,1,0,0,0-1,1v5.34L1.61,48.08A1,1,0,0,0,1,49v9a1,1,0,0,0,.5.87l7,4a1,1,0,0,0,1,0l7-4A1,1,0,0,0,17,58V49a1,1,0,0,0-.61-.92L10,45.34V41H29.18A3,3,0,0,0,31,42.82v2.52l-6.39,2.74A1,1,0,0,0,24,49v9a1,1,0,0,0,.5.87l7,4a1,1,0,0,0,1,0l7-4A1,1,0,0,0,40,58V49a1,1,0,0,0-.61-.92L33,45.34V42.82A3,3,0,0,0,34.82,41H54v4.34l-6.39,2.74A1,1,0,0,0,47,49v9a1,1,0,0,0,.5.87l7,4a1,1,0,0,0,1,0l7-4A1,1,0,0,0,63,58V49A1,1,0,0,0,62.39,48.08ZM8,60.28,3,57.42v-6.9l5,2.14Zm7-2.86-5,2.86V52.66l5-2.14ZM13.46,49,9,50.91,4.54,49,9,47.09ZM17,33a9,9,0,0,1-1.79-17.82,1,1,0,0,0,.8-1S16,14,16,14A11,11,0,0,1,36.24,8a1,1,0,0,0,1.16.4,8,8,0,0,1,10.43,5.93,1,1,0,0,0,.8.79A9,9,0,0,1,47,33ZM31,60.28l-5-2.86v-6.9l5,2.14Zm7-2.86-5,2.86V52.66l5-2.14ZM36.46,49,32,50.91,27.54,49,32,47.09ZM32,41a1,1,0,1,1,1-1A1,1,0,0,1,32,41ZM54,60.28l-5-2.86v-6.9l5,2.14Zm1-9.37L50.54,49,55,47.09,59.46,49Zm6,6.51-5,2.86V52.66l5-2.14Z"/></svg>
