<svg id="Layer_1" enable-background="new 0 0 512 512" height="512" viewBox="0 0 512 512" width="512" xmlns="http://www.w3.org/2000/svg"><g><path d="m417.003 180.999c1.868-5.743 2.906-11.624 3.044-17.643.692-33.28-25.877-60.956-59.226-61.648-10.448-.138-20.757 2.214-30.028 7.265-11.762-16.605-30.443-26.638-50.992-27.053-4.705-.069-9.41.346-14.184 1.315-15.152-28.298-44.004-46.149-76.247-46.841-49.124-.83-89.531 38.054-90.499 86.902-.208 8.441.899 16.882 3.183 25.254-31.135 10.309-52.93 39.507-53.622 72.718-.415 20.964 7.334 40.822 21.795 55.974 14.53 15.152 34.041 23.663 54.936 24.147h1.453c2.629 0 9.894 0 30.582-.069 2.837 0 5.189-2.352 5.189-5.189s-2.352-5.189-5.189-5.189c-18.681.069-30.789.138-31.689.069-18.197-.346-35.148-7.818-47.671-20.964-12.592-13.146-19.304-30.374-18.958-48.571.623-30.374 21.656-56.874 51.062-64.484 1.384-.346 2.56-1.315 3.252-2.56s.83-2.768.346-4.151c-3.044-8.856-4.428-17.851-4.29-26.845.899-43.174 36.532-77.423 79.914-76.731 29.751.623 56.182 17.782 69.051 44.696 1.107 2.283 3.598 3.459 6.019 2.768 5.12-1.384 10.24-2.006 15.36-1.937 18.612.346 35.494 10.24 45.111 26.361.692 1.245 1.937 2.076 3.321 2.422s2.837.069 4.013-.692c8.579-5.604 18.474-8.51 28.575-8.234 27.607.554 49.609 23.455 49.055 51.062-.138 6.781-1.661 13.423-4.497 19.719-.692 1.522-.623 3.252.208 4.705.83 1.453 2.283 2.422 3.875 2.629 25.6 3.114 44.489 24.977 43.935 50.785-.277 13.423-5.743 25.877-15.429 35.148s-22.348 14.253-35.702 13.907c-.899 0-19.373.069-60.471.208-2.837 0-5.189 2.352-5.189 5.189s2.214 4.912 5.189 5.189c32.173-.138 58.949-.277 60.195-.208 16.259.346 31.481-5.604 43.105-16.813 11.693-11.209 18.266-26.223 18.612-42.413.69-28.993-18.959-53.763-46.497-60.197z"/><path d="m114.231 173.942c-21.864 5.604-37.431 25.323-37.916 47.879-.069 2.837 2.214 5.258 5.051 5.328h.138c2.837 0 5.12-2.283 5.189-5.051.346-17.92 12.731-33.557 30.097-37.985 2.768-.692 4.428-3.529 3.736-6.296-.69-2.907-3.527-4.567-6.295-3.875z"/><path d="m382.339 178.162c.692.346 1.453.484 2.145.484 2.006 0 3.875-1.107 4.705-3.044 1.868-4.013 2.837-8.372 2.906-12.8.208-8.718-3.044-16.951-9.133-23.248-6.089-6.296-14.391-9.825-23.386-10.032-6.365 0-12.523 1.868-17.851 5.397-2.422 1.591-3.044 4.774-1.453 7.196s4.774 3.044 7.196 1.453c3.667-2.422 7.818-3.667 12.039-3.667 6.158.138 11.901 2.56 16.052 6.85 4.151 4.221 6.365 9.825 6.227 15.775-.069 3.044-.761 5.95-2.007 8.718-1.176 2.698-.069 5.742 2.56 6.918z"/><path d="m237.734 106.344c.761 0 1.522-.138 2.214-.484 2.56-1.245 3.667-4.359 2.422-6.919-1.315-2.837-2.906-5.535-4.636-8.164-1.591-2.352-4.843-2.975-7.196-1.384s-2.975 4.843-1.384 7.196c1.453 2.145 2.768 4.428 3.875 6.781.9 1.936 2.768 2.974 4.705 2.974z"/><path d="m188.61 74.655c11.139.208 21.518 3.944 30.166 10.794 2.283 1.799 5.535 1.384 7.265-.83 1.799-2.214 1.384-5.535-.83-7.265-10.448-8.303-23.04-12.8-36.463-13.077h-1.245c-32.796 0-60.056 26.707-60.748 59.572-.069 2.837 2.214 5.258 5.051 5.328h.138c2.837 0 5.12-2.283 5.189-5.051.554-27.261 23.178-49.401 50.301-49.401z"/><path d="m311.905 157.336h-126.34c-9.548 0-17.297 7.749-17.297 17.297v218.223c0 9.548 7.749 17.297 17.297 17.297h126.339c9.548 0 17.297-7.749 17.297-17.297v-218.223c.001-9.548-7.748-17.297-17.296-17.297zm-133.259 60.679h140.177v34.387h-140.177zm0 44.766h140.177v37.155h-140.177zm6.919-95.066h126.339c3.805 0 6.919 3.114 6.919 6.919v33.072h-140.177v-33.072c0-3.806 3.114-6.919 6.919-6.919zm126.34 232.06h-126.34c-3.805 0-6.919-3.114-6.919-6.919v-82.543h140.177v82.543c.001 3.806-3.113 6.919-6.918 6.919z"/><path d="m195.736 199.818h9.617c2.837 0 5.189-2.352 5.189-5.189s-2.352-5.189-5.189-5.189h-9.617c-2.837 0-5.189 2.352-5.189 5.189s2.283 5.189 5.189 5.189z"/><path d="m205.492 236.212h-9.617c-2.837 0-5.189 2.352-5.189 5.189s2.352 5.189 5.189 5.189h9.617c2.837 0 5.189-2.352 5.189-5.189s-2.283-5.189-5.189-5.189z"/><path d="m206.184 282.984h-9.617c-2.837 0-5.189 2.352-5.189 5.189s2.352 5.189 5.189 5.189h9.617c2.837 0 5.189-2.352 5.189-5.189s-2.352-5.189-5.189-5.189z"/><path d="m415.896 387.459-14.668-13.838c-2.076-1.937-5.397-1.868-7.334.208s-1.868 5.397.208 7.334l5.189 4.912h-37.431v-61.163c0-2.837-2.352-5.189-5.189-5.189s-5.189 2.352-5.189 5.189v66.352c0 2.837 2.352 5.189 5.189 5.189h42.966l-5.397 5.328c-2.076 2.007-2.076 5.328-.069 7.334 1.038 1.038 2.352 1.591 3.736 1.591 1.315 0 2.629-.484 3.598-1.453l14.53-14.253c3.805-4.15-.139-7.471-.139-7.541z"/><path d="m143.36 319.723c-2.837 0-5.189 2.352-5.189 5.189v61.163h-37.431l5.189-4.912c2.076-1.937 2.145-5.258.208-7.334s-5.258-2.145-7.334-.208l-14.737 13.907c-3.183 4.29-.069 7.403 0 7.403l14.461 14.184c1.038.969 2.352 1.453 3.598 1.453 1.315 0 2.698-.554 3.736-1.591 2.006-2.076 2.006-5.328-.069-7.334l-5.397-5.328h42.966c2.837 0 5.189-2.352 5.189-5.189v-66.352c-.001-2.768-2.284-5.051-5.19-5.051z"/><path d="m252.195 474.154 14.184-14.461c2.007-2.076 2.007-5.328-.069-7.334s-5.258-2.076-7.265 0l-5.328 5.397v-27.399c0-2.837-2.352-5.189-5.189-5.189s-5.189 2.352-5.189 5.189v27.053l-4.912-5.189c-1.937-2.076-5.258-2.145-7.334-.208s-2.145 5.258-.208 7.334l13.838 14.668c.31.287 1.659 1.468 3.746 1.493 2.04.025 3.398-1.073 3.726-1.354z"/><path d="m248.735 346.223c-10.171 0-18.474 8.303-18.474 18.474s8.303 18.473 18.474 18.473 18.473-8.303 18.473-18.473c.001-10.172-8.302-18.474-18.473-18.474zm0 26.568c-4.497 0-8.095-3.667-8.095-8.095 0-4.497 3.667-8.095 8.095-8.095s8.095 3.667 8.095 8.095c0 4.498-3.598 8.095-8.095 8.095z"/></g></svg>