<svg id="Layer_5" enable-background="new 0 0 64 64" height="512" viewBox="0 0 64 64" width="512" xmlns="http://www.w3.org/2000/svg"><g><path d="m54.409 45.009c-.119-.402-.258-.794-.409-1.179v-10.89c4.493-.5 8-4.317 8-8.941 0-4.962-4.037-9-9-9s-9 4.038-9 9c0 4.624 3.507 8.442 8 8.941v7.405c-2.581-3.297-6.574-5.345-11-5.345-.69 0-1.375.069-2.054.169-.374-3.139-2.831-5.64-5.946-6.089v-4.131c6.15-.511 11-5.67 11-11.949 0-6.617-5.383-12-12-12s-12 5.383-12 12c0 6.279 4.85 11.438 11 11.949v4.131c-3.386.488-6 3.401-6 6.92v3.389c-.975-.252-1.978-.389-3-.389-4.857 0-9.13 2.888-11 7.225v-15.225h1.701l.479-1.321 1.273.595 3.82-3.82-.596-1.273 1.323-.48v-5.401l-1.321-.48.596-1.273-3.82-3.82-1.273.595-.481-1.322h-5.402l-.479 1.321-1.273-.595-3.82 3.82.596 1.273-1.323.48v5.401l1.321.48-.596 1.273 3.82 3.82 1.273-.595.481 1.322h1.701v16c-4.411 0-8 3.589-8 8s3.589 8 8 8h45c4.963 0 9-4.038 9-9 0-4.825-3.817-8.776-8.591-8.991zm-3.409-22.009c0-1.103.897-2 2-2s2 .897 2 2-.897 2-2 2-2-.897-2-2zm2 4c1.808 0 3.436.961 4.322 2.496-1.192.939-2.691 1.504-4.322 1.504s-3.13-.565-4.322-1.504c.886-1.535 2.514-2.496 4.322-2.496zm0-10c3.859 0 7 3.14 7 7 0 1.492-.473 2.873-1.271 4.01-.708-1.021-1.655-1.834-2.763-2.351.636-.708 1.034-1.634 1.034-2.659 0-2.206-1.794-4-4-4s-4 1.794-4 4c0 1.025.398 1.951 1.034 2.659-1.108.517-2.055 1.33-2.763 2.351-.798-1.137-1.271-2.518-1.271-4.01 0-3.86 3.141-7 7-7zm-44.599 11.177-.212-.447-1.019-.423-1.2.562-1.838-1.837.56-1.198-.445-1.081-1.247-.454v-2.599l.823-.299.443-.204.425-1.031-.56-1.198 1.838-1.837 1.201.562 1.077-.447.454-1.246h2.598l.3.823.212.447 1.019.423 1.201-.562 1.838 1.837-.56 1.198.445 1.081 1.246.454v2.599l-.823.299-.443.204-.425 1.031.56 1.198-1.838 1.837-1.201-.562-1.077.447-.454 1.246h-2.598zm16.599 15.823c0-.551.448-1 1-1h12c.552 0 1 .449 1 1v12c0 .551-.448 1-1 1h-12c-.552 0-1-.449-1-1zm13-35v11.981c-1.165.878-2.52 1.516-4 1.818v-10.799h-4v-3zm-6 5v9c-2.252 0-4.326-.758-6-2.019v-6.981zm10-1c0 2.241-.75 4.305-2 5.974v-11.948c1.25 1.669 2 3.733 2 5.974zm-20 0c0-5.514 4.486-10 10-10 3.261 0 6.154 1.577 7.981 4h-2.981v-2h-2v2h-2v-2h-2v2h-3v5h-4v6.974c-1.25-1.669-2-3.733-2-5.974zm10 18c2.757 0 5 2.243 5 5v5h-10v-5c0-2.757 2.243-5 5-5zm22 30h-45c-3.309 0-6-2.691-6-6s2.691-6 6-6c.668 0 1.337.116 1.989.346l1.043.367.261-1.074c1.091-4.498 5.083-7.639 9.707-7.639.894 0 1.771.122 2.62.352-.958.501-1.62 1.494-1.62 2.648v12c0 1.654 1.346 3 3 3h12c1.654 0 3-1.346 3-3v-12c0-1.302-.839-2.402-2-2.816v-3.998c.66-.111 1.327-.186 2-.186 5.591 0 10.389 3.802 11.669 9.247l.19.807.981-.046c.054-.004.106-.008.16-.008 3.859 0 7 3.14 7 7s-3.141 7-7 7z"/><path d="m31 50.816v4.184h2v-4.184c1.161-.414 2-1.514 2-2.816 0-1.654-1.346-3-3-3s-3 1.346-3 3c0 1.302.839 2.402 2 2.816zm1-3.816c.552 0 1 .449 1 1s-.448 1-1 1-1-.449-1-1 .448-1 1-1z"/><path d="m15 22c0-2.757-2.243-5-5-5s-5 2.243-5 5 2.243 5 5 5 5-2.243 5-5zm-5 3c-1.654 0-3-1.346-3-3s1.346-3 3-3 3 1.346 3 3-1.346 3-3 3z"/><path d="m28 16h2v2h-2z"/><path d="m28 20h2v2h-2z"/><path d="m57 54c0 1.654-1.346 3-3 3h-2v2h2c2.757 0 5-2.243 5-5z"/><path d="m48 57h2v2h-2z"/><path d="m44 57h2v2h-2z"/></g></svg>