<svg width="70" height="46" viewBox="0 0 70 46" fill="none" xmlns="http://www.w3.org/2000/svg">
<g clip-path="url(#clip0_108_241)">
<rect width="70" height="46" fill="white"/>
<path d="M69.9651 0.00025177H3.05176e-05V3.80025H69.9651V0.00025177Z" fill="#BE202E"/>
<path d="M69.9651 7.06764H0V10.8676H69.9651V7.06764Z" fill="#BE202E"/>
<path d="M69.9651 14.1352H0V17.9352H69.9651V14.1352Z" fill="#BE202E"/>
<path d="M69.9651 21.2028H0V25.0028H69.9651V21.2028Z" fill="#BE202E"/>
<path d="M69.9651 28.2704H0V32.0704H69.9651V28.2704Z" fill="#BE202E"/>
<path d="M69.9651 35.338H0V39.138H69.9651V35.338Z" fill="#BE202E"/>
<path d="M69.9651 42.4055H0V46.2055H69.9651V42.4055Z" fill="#BE202E"/>
<path d="M30.2942 0H0V25H30.2942V0Z" fill="#1B1F4E"/>
<path d="M1.89956 1.09497L2.21485 2.06261H3.23526L2.40948 2.66094L2.72534 3.62913L1.89956 3.0308L1.07378 3.62913L1.38907 2.66094L0.563293 2.06261H1.5837L1.89956 1.09497Z" fill="white"/>
<path d="M7.19848 1.09497L7.51378 2.06261H8.53474L7.70896 2.66094L8.02426 3.62913L7.19848 3.0308L6.3727 3.62913L6.68799 2.66094L5.86221 2.06261H6.88318L7.19848 1.09497Z" fill="white"/>
<path d="M12.4974 1.09497L12.8132 2.06261H13.8336L13.0078 2.66094L13.3231 3.62913L12.4974 3.0308L11.6716 3.62913L11.9874 2.66094L11.1617 2.06261H12.1821L12.4974 1.09497Z" fill="white"/>
<path d="M17.7968 1.09497L18.1121 2.06261H19.1331L18.3073 2.66094L18.6226 3.62913L17.7968 3.0308L16.971 3.62913L17.2863 2.66094L16.4605 2.06261H17.4809L17.7968 1.09497Z" fill="white"/>
<path d="M23.0957 1.09497L23.411 2.06261H24.432L23.6062 2.66094L23.9215 3.62913L23.0957 3.0308L22.2699 3.62913L22.5852 2.66094L21.7595 2.06261H22.7804L23.0957 1.09497Z" fill="white"/>
<path d="M28.3946 1.09497L28.7105 2.06261H29.7309L28.9051 2.66094L29.221 3.62913L28.3946 3.0308L27.5689 3.62913L27.8847 2.66094L27.0589 2.06261H28.0793L28.3946 1.09497Z" fill="white"/>
<path d="M4.33184 3.62912L4.64714 4.59731H5.6681L4.84232 5.19564L5.15762 6.16383L4.33184 5.56551L3.50606 6.16383L3.82136 5.19564L2.99557 4.59731H4.01654L4.33184 3.62912Z" fill="white"/>
<path d="M9.63072 3.62912L9.94658 4.59731H10.967L10.1412 5.19564L10.4565 6.16383L9.63072 5.56551L8.80494 6.16383L9.12079 5.19564L8.29501 4.59731H9.31542L9.63072 3.62912Z" fill="white"/>
<path d="M14.9302 3.62912L15.2455 4.59731H16.2665L15.4407 5.19564L15.756 6.16383L14.9302 5.56551L14.1044 6.16383L14.4197 5.19564L13.5939 4.59731H14.6149L14.9302 3.62912Z" fill="white"/>
<path d="M20.2291 3.62912L20.5444 4.59731H21.5653L20.7396 5.19564L21.0549 6.16383L20.2291 5.56551L19.4033 6.16383L19.7186 5.19564L18.8928 4.59731H19.9138L20.2291 3.62912Z" fill="white"/>
<path d="M25.5286 3.62912L25.8439 4.59731H26.8643L26.0385 5.19564L26.3543 6.16383L25.5286 5.56551L24.7022 6.16383L25.0181 5.19564L24.1923 4.59731H25.2127L25.5286 3.62912Z" fill="white"/>
<path d="M1.89956 6.16383L2.21485 7.13147H3.23526L2.40948 7.7298L2.72534 8.698L1.89956 8.09967L1.07378 8.698L1.38907 7.7298L0.563293 7.13147H1.5837L1.89956 6.16383Z" fill="white"/>
<path d="M7.19848 6.16383L7.51378 7.13147H8.53474L7.70896 7.7298L8.02426 8.698L7.19848 8.09967L6.3727 8.698L6.68799 7.7298L5.86221 7.13147H6.88318L7.19848 6.16383Z" fill="white"/>
<path d="M12.4974 6.16383L12.8132 7.13147H13.8336L13.0078 7.7298L13.3231 8.698L12.4974 8.09967L11.6716 8.698L11.9874 7.7298L11.1617 7.13147H12.1821L12.4974 6.16383Z" fill="white"/>
<path d="M17.7968 6.16383L18.1121 7.13147H19.1331L18.3073 7.7298L18.6226 8.698L17.7968 8.09967L16.971 8.698L17.2863 7.7298L16.4605 7.13147H17.4809L17.7968 6.16383Z" fill="white"/>
<path d="M23.0957 6.16383L23.411 7.13147H24.432L23.6062 7.7298L23.9215 8.698L23.0957 8.09967L22.2699 8.698L22.5852 7.7298L21.7595 7.13147H22.7804L23.0957 6.16383Z" fill="white"/>
<path d="M28.3946 6.16383L28.7105 7.13147H29.7309L28.9051 7.7298L29.221 8.698L28.3946 8.09967L27.5689 8.698L27.8847 7.7298L27.0589 7.13147H28.0793L28.3946 6.16383Z" fill="white"/>
<path d="M4.33184 8.69801L4.64714 9.6662H5.6681L4.84232 10.2645L5.15762 11.2322L4.33184 10.6344L3.50606 11.2322L3.82136 10.2645L2.99557 9.6662H4.01654L4.33184 8.69801Z" fill="white"/>
<path d="M9.63072 8.69801L9.94658 9.6662H10.967L10.1412 10.2645L10.4565 11.2322L9.63072 10.6344L8.80494 11.2322L9.12079 10.2645L8.29501 9.6662H9.31542L9.63072 8.69801Z" fill="white"/>
<path d="M14.9302 8.69801L15.2455 9.6662H16.2665L15.4407 10.2645L15.756 11.2322L14.9302 10.6344L14.1044 11.2322L14.4197 10.2645L13.5939 9.6662H14.6149L14.9302 8.69801Z" fill="white"/>
<path d="M20.2291 8.69801L20.5444 9.6662H21.5653L20.7396 10.2645L21.0549 11.2322L20.2291 10.6344L19.4033 11.2322L19.7186 10.2645L18.8928 9.6662H19.9138L20.2291 8.69801Z" fill="white"/>
<path d="M25.5286 8.69801L25.8439 9.6662H26.8643L26.0385 10.2645L26.3543 11.2322L25.5286 10.6344L24.7022 11.2322L25.0181 10.2645L24.1923 9.6662H25.2127L25.5286 8.69801Z" fill="white"/>
<path d="M1.89956 11.2321L2.21485 12.2003H3.23526L2.40948 12.7987L2.72534 13.7669L1.89956 13.1685L1.07378 13.7669L1.38907 12.7987L0.563293 12.2003H1.5837L1.89956 11.2321Z" fill="white"/>
<path d="M7.19848 11.2321L7.51378 12.2003H8.53474L7.70896 12.7987L8.02426 13.7669L7.19848 13.1685L6.3727 13.7669L6.68799 12.7987L5.86221 12.2003H6.88318L7.19848 11.2321Z" fill="white"/>
<path d="M12.4974 11.2321L12.8132 12.2003H13.8336L13.0078 12.7987L13.3231 13.7669L12.4974 13.1685L11.6716 13.7669L11.9874 12.7987L11.1617 12.2003H12.1821L12.4974 11.2321Z" fill="white"/>
<path d="M17.7968 11.2321L18.1121 12.2003H19.1331L18.3073 12.7987L18.6226 13.7669L17.7968 13.1685L16.971 13.7669L17.2863 12.7987L16.4605 12.2003H17.4809L17.7968 11.2321Z" fill="white"/>
<path d="M23.0957 11.2321L23.411 12.2003H24.432L23.6062 12.7987L23.9215 13.7669L23.0957 13.1685L22.2699 13.7669L22.5852 12.7987L21.7595 12.2003H22.7804L23.0957 11.2321Z" fill="white"/>
<path d="M28.3946 11.2321L28.7105 12.2003H29.7309L28.9051 12.7987L29.221 13.7669L28.3946 13.1685L27.5689 13.7669L27.8847 12.7987L27.0589 12.2003H28.0793L28.3946 11.2321Z" fill="white"/>
<path d="M4.33184 13.7669L4.64714 14.7351H5.6681L4.84232 15.3334L5.15762 16.301L4.33184 15.7032L3.50606 16.301L3.82136 15.3334L2.99557 14.7351H4.01654L4.33184 13.7669Z" fill="white"/>
<path d="M9.63072 13.7669L9.94658 14.7351H10.967L10.1412 15.3334L10.4565 16.301L9.63072 15.7032L8.80494 16.301L9.12079 15.3334L8.29501 14.7351H9.31542L9.63072 13.7669Z" fill="white"/>
<path d="M14.9302 13.7669L15.2455 14.7351H16.2665L15.4407 15.3334L15.756 16.301L14.9302 15.7032L14.1044 16.301L14.4197 15.3334L13.5939 14.7351H14.6149L14.9302 13.7669Z" fill="white"/>
<path d="M20.2291 13.7669L20.5444 14.7351H21.5653L20.7396 15.3334L21.0549 16.301L20.2291 15.7032L19.4033 16.301L19.7186 15.3334L18.8928 14.7351H19.9138L20.2291 13.7669Z" fill="white"/>
<path d="M25.5286 13.7669L25.8439 14.7351H26.8643L26.0385 15.3334L26.3543 16.301L25.5286 15.7032L24.7022 16.301L25.0181 15.3334L24.1923 14.7351H25.2127L25.5286 13.7669Z" fill="white"/>
<path d="M1.89956 16.301L2.21485 17.2692H3.23526L2.40948 17.8675L2.72534 18.8357L1.89956 18.2374L1.07378 18.8357L1.38907 17.8675L0.563293 17.2692H1.5837L1.89956 16.301Z" fill="white"/>
<path d="M7.19848 16.301L7.51378 17.2692H8.53474L7.70896 17.8675L8.02426 18.8357L7.19848 18.2374L6.3727 18.8357L6.68799 17.8675L5.86221 17.2692H6.88318L7.19848 16.301Z" fill="white"/>
<path d="M12.4974 16.301L12.8132 17.2692H13.8336L13.0078 17.8675L13.3231 18.8357L12.4974 18.2374L11.6716 18.8357L11.9874 17.8675L11.1617 17.2692H12.1821L12.4974 16.301Z" fill="white"/>
<path d="M17.7968 16.301L18.1121 17.2692H19.1331L18.3073 17.8675L18.6226 18.8357L17.7968 18.2374L16.971 18.8357L17.2863 17.8675L16.4605 17.2692H17.4809L17.7968 16.301Z" fill="white"/>
<path d="M23.0957 16.301L23.411 17.2692H24.432L23.6062 17.8675L23.9215 18.8357L23.0957 18.2374L22.2699 18.8357L22.5852 17.8675L21.7595 17.2692H22.7804L23.0957 16.301Z" fill="white"/>
<path d="M28.3946 16.301L28.7105 17.2692H29.7309L28.9051 17.8675L29.221 18.8357L28.3946 18.2374L27.5689 18.8357L27.8847 17.8675L27.0589 17.2692H28.0793L28.3946 16.301Z" fill="white"/>
<path d="M4.33184 18.8357L4.64714 19.8039H5.6681L4.84232 20.4023L5.15762 21.3699L4.33184 20.7716L3.50606 21.3699L3.82136 20.4023L2.99557 19.8039H4.01654L4.33184 18.8357Z" fill="white"/>
<path d="M9.63072 18.8357L9.94658 19.8039H10.967L10.1412 20.4023L10.4565 21.3699L9.63072 20.7716L8.80494 21.3699L9.12079 20.4023L8.29501 19.8039H9.31542L9.63072 18.8357Z" fill="white"/>
<path d="M14.9302 18.8357L15.2455 19.8039H16.2665L15.4407 20.4023L15.756 21.3699L14.9302 20.7716L14.1044 21.3699L14.4197 20.4023L13.5939 19.8039H14.6149L14.9302 18.8357Z" fill="white"/>
<path d="M20.2291 18.8357L20.5444 19.8039H21.5653L20.7396 20.4023L21.0549 21.3699L20.2291 20.7716L19.4033 21.3699L19.7186 20.4023L18.8928 19.8039H19.9138L20.2291 18.8357Z" fill="white"/>
<path d="M25.5286 18.8357L25.8439 19.8039H26.8643L26.0385 20.4023L26.3543 21.3699L25.5286 20.7716L24.7022 21.3699L25.0181 20.4023L24.1923 19.8039H25.2127L25.5286 18.8357Z" fill="white"/>
<path d="M1.89956 21.3699L2.21485 22.3381H3.23526L2.40948 22.9364L2.72534 23.9046L1.89956 23.3063L1.07378 23.9046L1.38907 22.9364L0.563293 22.3381H1.5837L1.89956 21.3699Z" fill="white"/>
<path d="M7.19848 21.3699L7.51378 22.3381H8.53474L7.70896 22.9364L8.02426 23.9046L7.19848 23.3063L6.3727 23.9046L6.68799 22.9364L5.86221 22.3381H6.88318L7.19848 21.3699Z" fill="white"/>
<path d="M12.4974 21.3699L12.8132 22.3381H13.8336L13.0078 22.9364L13.3231 23.9046L12.4974 23.3063L11.6716 23.9046L11.9874 22.9364L11.1617 22.3381H12.1821L12.4974 21.3699Z" fill="white"/>
<path d="M17.7968 21.3699L18.1121 22.3381H19.1331L18.3073 22.9364L18.6226 23.9046L17.7968 23.3063L16.971 23.9046L17.2863 22.9364L16.4605 22.3381H17.4809L17.7968 21.3699Z" fill="white"/>
<path d="M23.0957 21.3699L23.411 22.3381H24.432L23.6062 22.9364L23.9215 23.9046L23.0957 23.3063L22.2699 23.9046L22.5852 22.9364L21.7595 22.3381H22.7804L23.0957 21.3699Z" fill="white"/>
<path d="M28.3946 21.3699L28.7105 22.3381H29.7309L28.9051 22.9364L29.221 23.9046L28.3946 23.3063L27.5689 23.9046L27.8847 22.9364L27.0589 22.3381H28.0793L28.3946 21.3699Z" fill="white"/>
</g>
<defs>
<clipPath id="clip0_108_241">
<rect width="70" height="46" fill="white"/>
</clipPath>
</defs>
</svg>
