<svg width="17" height="14" viewBox="0 0 17 14" fill="none" xmlns="http://www.w3.org/2000/svg">
<path fill-rule="evenodd" clip-rule="evenodd" d="M8.60449 0.75C9.29918 0.75 10.0117 0.767875 10.7024 0.797125L11.5181 0.836125L12.2989 0.882438L13.0302 0.932L13.6981 0.984C14.4228 1.03948 15.1049 1.34877 15.6241 1.85747C16.1434 2.36617 16.4666 3.04169 16.5369 3.76519L16.5694 4.1105L16.6304 4.84987C16.6872 5.61606 16.7295 6.45131 16.7295 7.25C16.7295 8.04869 16.6872 8.88394 16.6304 9.65013L16.5694 10.3895C16.5589 10.5081 16.5483 10.6227 16.5369 10.7348C16.4666 11.4584 16.1432 12.1341 15.6238 12.6428C15.1044 13.1515 14.4222 13.4607 13.6972 13.516L13.031 13.5672L12.2997 13.6176L11.5181 13.6639L10.7024 13.7029C10.0035 13.7332 9.30404 13.749 8.60449 13.75C7.90495 13.749 7.2055 13.7332 6.50662 13.7029L5.69087 13.6639L4.91005 13.6176L4.1788 13.5672L3.51093 13.516C2.78614 13.4605 2.10413 13.1512 1.58488 12.6425C1.06562 12.1338 0.742396 11.4583 0.672055 10.7348L0.639555 10.3895L0.578617 9.65013C0.516491 8.85155 0.483428 8.05098 0.479492 7.25C0.479492 6.45131 0.521742 5.61606 0.578617 4.84987L0.639555 4.1105C0.650117 3.99187 0.66068 3.87731 0.672055 3.76519C0.742369 3.04182 1.06548 2.3664 1.58457 1.85772C2.10365 1.34903 2.78547 1.03966 3.51012 0.984L4.17718 0.932L4.90843 0.882438L5.69005 0.836125L6.5058 0.797125C7.20496 0.766764 7.90468 0.751052 8.60449 0.75ZM6.97949 5.27969V9.22031C6.97949 9.59569 7.38574 9.82969 7.71074 9.64281L11.1232 7.6725C11.1975 7.62976 11.2592 7.5682 11.3021 7.49402C11.345 7.41985 11.3675 7.33568 11.3675 7.25C11.3675 7.16432 11.345 7.08015 11.3021 7.00598C11.2592 6.9318 11.1975 6.87024 11.1232 6.8275L7.71074 4.858C7.63661 4.8152 7.55251 4.79267 7.46691 4.79269C7.38131 4.7927 7.29723 4.81525 7.22311 4.85808C7.14899 4.9009 7.08745 4.96249 7.04469 5.03664C7.00192 5.11079 6.97944 5.1949 6.97949 5.2805V5.27969Z" fill="white"/>
</svg>
